<?xml version="1.0" standalone="no"?>
<!DOCTYPE svg PUBLIC "-//W3C//DTD SVG 20010904//EN"
 "http://www.w3.org/TR/2001/REC-SVG-20010904/DTD/svg10.dtd">
<svg version="1.0" xmlns="http://www.w3.org/2000/svg"
 width="16.000000pt" height="16.000000pt" viewBox="0 0 16.000000 16.000000"
 preserveAspectRatio="xMidYMid meet">
<metadata>
Created by potrace 1.11, written by Peter Selinger 2001-2013
</metadata>
<g transform="translate(0.000000,16.000000) scale(0.002286,-0.002286)"
fill="#000000" stroke="none">
<path d="M3375 6663 c-294 -46 -533 -225 -655 -488 -98 -214 -90 -519 20 -735
66 -131 211 -292 323 -358 63 -38 199 -99 237 -106 14 -2 48 -9 75 -15 114
-26 275 -17 400 20 293 88 507 320 578 629 17 71 20 240 6 319 -49 276 -230
521 -479 646 -65 33 -179 72 -235 81 -48 7 -237 13 -270 7z m267 -407 c281
-82 416 -403 282 -668 -31 -61 -133 -166 -184 -189 -104 -48 -132 -55 -228
-58 -120 -4 -220 33 -310 114 -233 210 -215 547 41 738 104 78 263 103 399 63z"/>
<path d="M1389 3964 l-766 -766 1434 -1434 1434 -1433 1440 1439 c791 792
1439 1443 1439 1447 0 5 -339 347 -753 761 l-752 752 -1355 0 -1355 0 -766
-766z"/>
</g>
</svg>
