<svg xmlns="http://www.w3.org/2000/svg" viewBox="0 0 552.29 248.58"><defs><style>.cls-1{fill:#0a783d;}.cls-2{fill:#f2f2f2;}.cls-3{fill:#39b54a;}.cls-4{fill:#009245;opacity:0.3;}.cls-5{fill:#754c24;}.cls-6{fill:#8c6239;}.cls-7{fill:#42210b;}.cls-8{fill:#e6e6e6;}.cls-9{fill:#c1272d;}.cls-10{font-size:25.02px;font-family:Comfortaa-Bold, Comfortaa;font-weight:700;}.cls-10,.cls-13{fill:#fff;}.cls-11{fill:#c1c3c5;}.cls-12{fill:#f59a2f;}.cls-14{stroke:#000;stroke-width:1.07px;}.cls-14,.cls-17,.cls-20{stroke-miterlimit:10;}.cls-15{fill:#e1e3e4;}.cls-16{fill:#edefef;}.cls-17,.cls-20{fill:none;stroke:#f59a2f;}.cls-17{stroke-width:3.06px;}.cls-18{fill:#ab6d1d;}.cls-19{fill:#1a1a1a;}.cls-20{stroke-width:3.84px;}</style></defs><title>Website Pages</title><g id="Page_Not_Found" data-name="Page Not Found"><rect class="cls-1" y="219.29" width="552.29" height="14.65"/><rect class="cls-2" y="233.94" width="552.29" height="14.65"/><path class="cls-3" d="M520.93,127.41a58.82,58.82,0,0,1-117.63,0C403.29,94.92,429.62,0,462.11,0S520.93,94.92,520.93,127.41Z"/><path class="cls-4" d="M462.11,118.9a26.47,26.47,0,0,1-26.44-26.44c0-7.3,2.89-20.15,6.88-30.56,5.66-14.78,12.24-22.27,19.56-22.27S476,47.12,481.67,61.9c4,10.41,6.88,23.26,6.88,30.56A26.47,26.47,0,0,1,462.11,118.9Z"/><rect class="cls-5" x="469.98" y="135.82" width="9.59" height="32.79" transform="translate(246.69 -291.13) rotate(45)"/><rect class="cls-5" x="445.67" y="109.16" width="9.59" height="32.79" transform="translate(857.77 -104.18) rotate(135)"/><rect class="cls-6" x="457.41" y="100.93" width="9.59" height="118.36"/><rect class="cls-7" x="391.03" y="151.89" width="5.86" height="88.04"/><polygon class="cls-8" points="379.55 155.52 359.17 135.14 359.17 106.33 379.55 85.95 408.37 85.95 428.74 106.33 428.74 135.14 408.37 155.52 379.55 155.52"/><polygon class="cls-9" points="406.3 90.95 381.62 90.95 364.17 108.4 364.17 133.07 381.62 150.52 406.3 150.52 423.74 133.07 423.74 108.4 406.3 90.95"/><text class="cls-10" transform="translate(370.39 130.09)">404</text><path class="cls-8" d="M304.93,160.38a11.91,11.91,0,0,1-17.07,10.73,11.89,11.89,0,0,1-23.69-1.54,2.51,2.51,0,0,1,0-.34,11.91,11.91,0,0,1-9-11.56,11.79,11.79,0,0,1,3.12-8,11.9,11.9,0,0,1,.16-21c-.16-.34-.29-.68-.42-1a4.68,4.68,0,0,1-2.75.88,4.77,4.77,0,1,1,0-9.55,4.68,4.68,0,0,1,2.75.88,11.89,11.89,0,0,1,3.63-5.26,15.92,15.92,0,1,1,19.82-24.9,12.45,12.45,0,0,1,15.93,18.58,11.91,11.91,0,0,1-2.45,20.58,8.81,8.81,0,0,1,0,.92,11.8,11.8,0,0,1-1.12,5,11.92,11.92,0,0,1,7.25,11,11.53,11.53,0,0,1-1.1,5A11.84,11.84,0,0,1,304.93,160.38Z"/><circle class="cls-8" cx="305.93" cy="106.93" r="4.77"/><path class="cls-11" d="M299,221.19a29.67,29.67,0,0,1-.32,4.39H290a21.21,21.21,0,1,0-41.66,0h-8.65a29.81,29.81,0,1,1,59.29-4.4Z"/><path class="cls-11" d="M106.06,221.19a29.67,29.67,0,0,1-.32,4.39H97.09a21.21,21.21,0,1,0-41.66,0h-7c-2-1.2-2-2.9-2-4.4a29.81,29.81,0,0,1,59.61,0Z"/><path id="Fill" class="cls-12" d="M296.8,225.58h8.72c9.63,0,9.63-25.93.05-25.93-2-9.77-9.71-21.92-27.91-22.39-3.88-.1-45.45-2.75-50.52-2.75-13.73-12.32-32.88-26.39-54-30.5-52.38-10.19-94.14,5.48-99.66,10.25-3.92.22-7.62,0-9,0-2.85-.1-3.47,5-1.31,5.21.61.06,3.46.41,5.06.41s-7.47,7.59-8.34,8-6.2-.15-8.24.64S31.36,188.74,31.36,203c0,14.83,15.38,22.81,17.2,22.56-2.67-18.35,10.9-31.73,27.92-31.73,17.56,0,29.93,13.83,27.49,31.72H241.43c-2.2-15.65,8.35-31.2,27.93-31.2C285.86,194.38,298.69,209.07,296.8,225.58Z"/><path id="Back" class="cls-13" d="M52.09,173.51,44.2,184.27H58.87c7.34,0,6.12-10.75,0-10.75Z"/><path id="Front:_1" data-name="Front: 1" class="cls-13" d="M273.82,182.66c-1.26,2.38,4.27,6.74,11.55,10.59s16.82,7.64,15.82,4.87a25.29,25.29,0,0,0-12-14C282,180.25,275.08,180.28,273.82,182.66Z"/><path id="Front:_2" data-name="Front: 2" class="cls-13" d="M307.88,206.28h-5.69v8.83h5.69C309.76,215.11,309.77,206.28,307.88,206.28Z"/><circle id="Tyre" class="cls-14" cx="76.26" cy="221.55" r="21.21"/><circle id="Rim" class="cls-15" cx="76.26" cy="221.55" r="14.62"/><circle id="Tyre-2" data-name="Tyre" class="cls-14" cx="269.15" cy="221.55" r="21.21"/><circle id="Rim-2" data-name="Rim" class="cls-15" cx="269.15" cy="221.55" r="14.62"/><path id="Front" class="cls-16" d="M216.7,174.51H81.95c-4.59,0,3.63-22.92,23.35-25.67C172.05,139.52,196.1,157.08,216.7,174.51Z"/><line class="cls-17" x1="120.73" y1="146.25" x2="120.73" y2="177.43"/><rect class="cls-18" x="197.91" y="171.04" width="18.8" height="8.47"/><path class="cls-18" d="M48.56,225.59c-1.33.2-9.58-4-13.81-11.1H49A29.53,29.53,0,0,0,48.56,225.59Z"/><path class="cls-18" d="M241.43,225.58H104a35.74,35.74,0,0,0,.31-4.45,28.05,28.05,0,0,0-.72-6.54l138.37.22A35,35,0,0,0,241.43,225.58Z"/><path class="cls-18" d="M312.64,214.93c-.49,5.8-3,10.65-7.12,10.65h-8.76a22.19,22.19,0,0,0,.2-4.33,30.81,30.81,0,0,0-1-6.34Z"/><path class="cls-19" d="M230.7,174.63s55,2,63.85,7.76c-12.22-10.53-56.22-9.91-60.53-9.95Z"/><path class="cls-20" d="M226.06,175.28l45-25.93s10.35-5.77,16.53-4.89"/></g></svg>