<svg xmlns="http://www.w3.org/2000/svg" viewBox="0 0 552.29 248.58"><defs><style>.a{fill:#0a783d}.b{fill:#f2f2f2}.c{fill:#39b54a}.d{fill:#009245;opacity:.3}.e{fill:#754c24}.f{fill:#8c6239}.g{fill:#42210b}.h{fill:#e6e6e6}.i{fill:#c1272d}.j{fill:#fff}.k{fill:#c1c3c5}.l{fill:#f59a2f}.m{stroke:#000;stroke-width:1.07px}.m,.p,.s{stroke-miterlimit:10}.n{fill:#e1e3e4}.o{fill:#edefef}.p,.s{fill:none;stroke:#f59a2f}.p{stroke-width:3.06px}.q{fill:#ab6d1d}.r{fill:#1a1a1a}.s{stroke-width:3.84px}</style></defs><title>Page Not Found</title><path class="a" d="M0 219.29h552.29v14.65H0z"/><path class="b" d="M0 233.94h552.29v14.65H0z"/><path class="c" d="M520.93 127.41a58.82 58.82 0 0 1-117.63 0C403.29 94.92 429.62 0 462.11 0s58.82 94.92 58.82 127.41z"/><path class="d" d="M462.11 118.9a26.47 26.47 0 0 1-26.44-26.44c0-7.3 2.89-20.15 6.88-30.56 5.66-14.78 12.24-22.27 19.56-22.27S476 47.12 481.67 61.9c4 10.41 6.88 23.26 6.88 30.56a26.47 26.47 0 0 1-26.44 26.44z"/><path class="e" d="M482.977 137.235l6.781 6.781-23.186 23.186-6.781-6.78zm-17.531-3.466l-6.781 6.78-23.186-23.185 6.78-6.782z"/><path class="f" d="M457.41 100.93H467v118.36h-9.59z"/><path class="g" d="M391.03 151.89h5.86v88.04h-5.86z"/><path class="h" d="M379.55 155.52l-20.38-20.38v-28.81l20.38-20.38h28.82l20.37 20.38v28.81l-20.37 20.38h-28.82z"/><path class="i" d="M406.3 90.95h-24.68l-17.45 17.45v24.67l17.45 17.45h24.68l17.44-17.45V108.4L406.3 90.95z"/><path class="j" d="M385.38 123.63a1.16 1.16 0 0 1 0 1.69 1.3 1.3 0 0 1-.9.34h-1.5v3.15a1.25 1.25 0 0 1-.36.9 1.19 1.19 0 0 1-.89.38 1.12 1.12 0 0 1-.85-.38 1.27 1.27 0 0 1-.35-.9v-3.15h-8.33a1.21 1.21 0 0 1-.93-.37 1.24 1.24 0 0 1-.35-.88 1.2 1.2 0 0 1 .25-.75l9.58-12.56a1.28 1.28 0 0 1 1.05-.55 1.07 1.07 0 0 1 .85.38 1.36 1.36 0 0 1 .33.93v11.51h1.5a1.46 1.46 0 0 1 .9.26zm-11.18-.28h6.31v-8.28zm15.34 4.16a13.92 13.92 0 0 1-1.56-7.21 13.93 13.93 0 0 1 1.56-7.21 4.91 4.91 0 0 1 4.42-2.58 4.76 4.76 0 0 1 3.23 1.18 7.27 7.27 0 0 1 2.05 3.38 19.85 19.85 0 0 1 0 10.46 7.27 7.27 0 0 1-2.05 3.38 4.75 4.75 0 0 1-3.23 1.18 4.9 4.9 0 0 1-4.42-2.58zm7-2a16 16 0 0 0 0-10.41 2.61 2.61 0 0 0-5.07 0 13.27 13.27 0 0 0-.86 5.22 13 13 0 0 0 .88 5.22 2.61 2.61 0 0 0 5.07 0zm19.63-1.88a1.16 1.16 0 0 1 0 1.69 1.3 1.3 0 0 1-.9.34h-1.5v3.15a1.25 1.25 0 0 1-.36.9 1.19 1.19 0 0 1-.89.38 1.12 1.12 0 0 1-.85-.38 1.27 1.27 0 0 1-.35-.9v-3.15H403a1.21 1.21 0 0 1-.93-.37 1.24 1.24 0 0 1-.35-.88 1.2 1.2 0 0 1 .25-.75l9.58-12.56a1.28 1.28 0 0 1 1.05-.55 1.07 1.07 0 0 1 .85.38 1.36 1.36 0 0 1 .33.93v11.51h1.5a1.46 1.46 0 0 1 .89.26zm-11.17-.27h6.31v-8.28z"/><path class="h" d="M304.93 160.38a11.91 11.91 0 0 1-17.07 10.73 11.89 11.89 0 0 1-23.69-1.54 2.51 2.51 0 0 1 0-.34 11.91 11.91 0 0 1-9-11.56 11.79 11.79 0 0 1 3.12-8 11.9 11.9 0 0 1 .16-21c-.16-.34-.29-.68-.42-1a4.68 4.68 0 0 1-2.75.88 4.77 4.77 0 1 1 0-9.55 4.68 4.68 0 0 1 2.75.88 11.89 11.89 0 0 1 3.63-5.26 15.92 15.92 0 1 1 19.82-24.9 12.45 12.45 0 0 1 15.93 18.58 11.91 11.91 0 0 1-2.45 20.58 8.81 8.81 0 0 1 0 .92 11.8 11.8 0 0 1-1.12 5 11.92 11.92 0 0 1 7.25 11 11.53 11.53 0 0 1-1.1 5 11.84 11.84 0 0 1 4.94 9.58z"/><circle class="h" cx="305.93" cy="106.93" r="4.77"/><path class="k" d="M299 221.19a29.67 29.67 0 0 1-.32 4.39H290a21.21 21.21 0 1 0-41.66 0h-8.65a29.81 29.81 0 1 1 59.29-4.4zm-192.94 0a29.67 29.67 0 0 1-.32 4.39h-8.65a21.21 21.21 0 1 0-41.66 0h-7c-2-1.2-2-2.9-2-4.4a29.81 29.81 0 0 1 59.61 0z"/><path class="l" d="M296.8 225.58h8.72c9.63 0 9.63-25.93.05-25.93-2-9.77-9.71-21.92-27.91-22.39-3.88-.1-45.45-2.75-50.52-2.75-13.73-12.32-32.88-26.39-54-30.5-52.38-10.19-94.14 5.48-99.66 10.25-3.92.22-7.62 0-9 0-2.85-.1-3.47 5-1.31 5.21.61.06 3.46.41 5.06.41s-7.47 7.59-8.34 8-6.2-.15-8.24.64S31.36 188.74 31.36 203c0 14.83 15.38 22.81 17.2 22.56-2.67-18.35 10.9-31.73 27.92-31.73 17.56 0 29.93 13.83 27.49 31.72h137.46c-2.2-15.65 8.35-31.2 27.93-31.2 16.5.03 29.33 14.72 27.44 31.23z"/><path class="j" d="M52.09 173.51l-7.89 10.76h14.67c7.34 0 6.12-10.75 0-10.75zm221.73 9.15c-1.26 2.38 4.27 6.74 11.55 10.59s16.82 7.64 15.82 4.87a25.29 25.29 0 0 0-12-14c-7.19-3.87-14.11-3.84-15.37-1.46zm34.06 23.62h-5.69v8.83h5.69c1.88 0 1.89-8.83 0-8.83z"/><circle class="m" cx="76.26" cy="221.55" r="21.21"/><circle class="n" cx="76.26" cy="221.55" r="14.62"/><circle class="m" cx="269.15" cy="221.55" r="21.21"/><circle class="n" cx="269.15" cy="221.55" r="14.62"/><path class="o" d="M216.7 174.51H81.95c-4.59 0 3.63-22.92 23.35-25.67 66.75-9.32 90.8 8.24 111.4 25.67z"/><path class="p" d="M120.73 146.25v31.18"/><path class="q" d="M197.91 171.04h18.8v8.47h-18.8zM48.56 225.59c-1.33.2-9.58-4-13.81-11.1H49a29.53 29.53 0 0 0-.44 11.1zm192.87-.01H104a35.74 35.74 0 0 0 .31-4.45 28.05 28.05 0 0 0-.72-6.54l138.37.22a35 35 0 0 0-.53 10.77zm71.21-10.65c-.49 5.8-3 10.65-7.12 10.65h-8.76a22.19 22.19 0 0 0 .2-4.33 30.81 30.81 0 0 0-1-6.34z"/><path class="r" d="M230.7 174.63s55 2 63.85 7.76c-12.22-10.53-56.22-9.91-60.53-9.95z"/><path class="s" d="M226.06 175.28l45-25.93s10.35-5.77 16.53-4.89"/></svg>