<svg xmlns="http://www.w3.org/2000/svg" viewBox="0 0 552.29 319.29"><defs><style>.a{fill:#0a783d;}.b{fill:#f2f2f2;}.c{fill:#603a16;}.d{fill:#00974a;}.e{fill:#a5b6b2;}.f{fill:#f8bc81;}.g{fill:#677271;}.h{fill:#1aa27d;}.i{fill:#fff;}.j{fill:#22967c;}.k{fill:#efca6c;}.l{fill:#a6a8ab;}.m,.u{fill:none;}.m{stroke:#1a1a1a;stroke-width:2px;}.m,.r,.u{stroke-miterlimit:10;}.n{fill:#1dbd90;}.o{fill:#e6e6e6;}.p{fill:#c1c3c5;}.q{fill:#f59a2f;}.r{stroke:#000;stroke-width:0.69px;}.s{fill:#e1e3e4;}.t{fill:#edefef;}.u{stroke:#f59a2f;stroke-width:1.98px;}.v{fill:#ab6d1d;}</style></defs><title>Pages</title><rect class="a" y="290" width="552.29" height="14.65"/><rect class="b" y="304.65" width="552.29" height="14.65"/><rect class="c" x="77.09" y="226.97" width="17.36" height="63.03"/><polygon class="d" points="22.29 258.85 85.77 150.14 149.24 258.85 22.29 258.85"/><polygon class="d" points="35.26 215.65 85.77 129.16 136.27 215.65 35.26 215.65"/><polygon class="d" points="123.3 172.4 48.23 172.4 85.77 108.13 123.3 172.4"/><polygon class="a" points="60.52 172.4 111.02 172.4 112.26 174.53 59.27 174.53 60.52 172.4"/><polygon class="a" points="47.52 215.65 124.02 215.65 125.26 217.77 46.27 217.77 47.52 215.65"/><rect class="e" x="224.93" y="110.08" width="23" height="176.25"/><rect class="e" x="440.07" y="110.08" width="23" height="176.25"/><rect class="e" x="325.18" y="45.75" width="5.25" height="46.83"/><rect class="e" x="355.56" y="45.75" width="5.25" height="46.83"/><rect class="f" x="158" y="87.92" width="372" height="20.67"/><rect class="b" x="158" y="108.13" width="372" height="5.37"/><rect class="g" x="214.16" y="284.83" width="259.67" height="5.17"/><circle class="h" cx="343" cy="31.88" r="31.88"/><path class="i" d="M355.25,39.51a12.25,12.25,0,1,1-24.5,0C330.75,32.74,341.07,12,343,12,345.13,12,355.25,32.74,355.25,39.51Z"/><rect class="j" x="269.24" y="213.17" width="43.45" height="71.67"/><rect class="j" x="375.31" y="213.17" width="43.45" height="71.79"/><rect class="h" x="247.93" y="173.17" width="21" height="21"/><rect class="h" x="419.07" y="173.17" width="21" height="21"/><rect class="i" x="272.71" y="219.08" width="36.5" height="20.29" rx="2.67" ry="2.67"/><rect class="i" x="378.78" y="219.4" width="36.5" height="19.67" rx="2.63" ry="2.63"/><rect class="k" x="269.24" y="207.17" width="43.45" height="6"/><rect class="k" x="375.31" y="207.17" width="43.45" height="6"/><rect class="l" x="312.69" y="231.5" width="5.5" height="16"/><rect class="l" x="369.81" y="231.5" width="5.5" height="16"/><path class="m" d="M318.19,239.5c4.88,0,1.58,25.26-6.3,45"/><path class="m" d="M369.9,239.5c-4.88,0-1.58,25.26,6.3,45"/><rect class="n" x="269.24" y="245.29" width="43.45" height="39.54"/><rect class="n" x="375.31" y="245.29" width="43.45" height="39.54"/><rect class="o" x="278.29" y="224.61" width="25.33" height="3"/><rect class="o" x="278.29" y="230.84" width="25.33" height="3"/><rect class="o" x="384.37" y="224.61" width="25.33" height="3"/><rect class="o" x="384.37" y="230.84" width="25.33" height="3"/><path class="i" d="M259.19,190.54a.9.9,0,0,1-.27-.66V178.72l-1.34.57a1.55,1.55,0,0,1-.59.13.92.92,0,0,1-.67-.26.88.88,0,0,1-.27-.66,1,1,0,0,1,.15-.54.86.86,0,0,1,.46-.34l2.86-1a1.17,1.17,0,0,1,.35-.07.88.88,0,0,1,.66.27,1,1,0,0,1,.26.69v12.41a.9.9,0,0,1-.27.66.92.92,0,0,1-.68.27A.88.88,0,0,1,259.19,190.54Z"/><path class="i" d="M426.5,190.54a.9.9,0,0,1-.27-.66,1.33,1.33,0,0,1,.17-.59l5.25-10.91h-5.56a.93.93,0,1,1,0-1.87h7a.94.94,0,0,1,.93.93,1.29,1.29,0,0,1-.13.49L428,190.3a.94.94,0,0,1-.37.38,1,1,0,0,1-.5.14A.88.88,0,0,1,426.5,190.54Z"/><circle class="o" cx="343" cy="39.54" r="8.29"/><path class="p" d="M391.34,298a19.2,19.2,0,0,1-.21,2.84h-5.6a13.73,13.73,0,1,0-27,0H353A19.29,19.29,0,1,1,391.34,298Z"/><path class="p" d="M266.5,298a19.2,19.2,0,0,1-.21,2.84h-5.6a13.73,13.73,0,1,0-27,0h-4.5a2.87,2.87,0,0,1-1.3-2.84,19.29,19.29,0,1,1,38.58,0Z"/><path class="q" d="M389.95,300.85h5.64c6.23,0,6.23-16.78,0-16.78-1.31-6.32-6.28-14.18-18.07-14.49-2.51-.07-29.41-1.78-32.7-1.78-8.89-8-21.28-17.08-35-19.74-33.9-6.59-60.92,3.54-64.5,6.63-2.54.14-4.93,0-5.8,0-1.84-.07-2.25,3.24-.85,3.37.39,0,2.24.27,3.27.27s-4.83,4.91-5.4,5.19-4-.1-5.33.41S218.16,277,218.16,286.26c0,9.6,10,14.76,11.13,14.6-1.73-11.87,7.05-20.53,18.07-20.53,11.36,0,19.37,9,17.79,20.53h89c-1.42-10.13,5.4-20.19,18.08-20.19A18.07,18.07,0,0,1,389.95,300.85Z"/><path class="i" d="M231.57,267.15l-5.11,7H236c4.75,0,4-7,0-7Z"/><path class="i" d="M375.08,273.07c-.81,1.54,2.76,4.36,7.47,6.85s10.89,4.94,10.24,3.15a16.37,16.37,0,0,0-7.75-9C380.34,271.51,375.89,271.54,375.08,273.07Z"/><path class="i" d="M397.12,288.36h-3.68v5.72h3.68C398.33,294.08,398.34,288.36,397.12,288.36Z"/><circle class="r" cx="247.21" cy="298.24" r="13.73"/><circle class="s" cx="247.21" cy="298.24" r="9.46"/><circle class="r" cx="372.05" cy="298.24" r="13.73"/><circle class="s" cx="372.05" cy="298.24" r="9.46"/><path class="t" d="M338.11,267.8H250.9c-3,0,2.35-14.83,15.11-16.61C309.21,245.16,324.78,256.52,338.11,267.8Z"/><line class="u" x1="275.99" y1="249.51" x2="275.99" y2="269.69"/><rect class="v" x="325.94" y="265.56" width="12.16" height="5.48"/><path class="v" d="M229.28,300.86c-.86.13-6.2-2.61-8.94-7.18h9.21A19.11,19.11,0,0,0,229.28,300.86Z"/><path class="v" d="M354.11,300.85h-89a23.13,23.13,0,0,0,.2-2.88,18.16,18.16,0,0,0-.46-4.23l89.55.14A22.67,22.67,0,0,0,354.11,300.85Z"/><path class="v" d="M400.2,294c-.31,3.76-2,6.89-4.61,6.89h-5.67a14.36,14.36,0,0,0,.13-2.81,19.94,19.94,0,0,0-.64-4.1Z"/></svg>