<svg xmlns="http://www.w3.org/2000/svg" viewBox="0 0 552.29 319.29"><defs><style>.a{fill:#0a783d}.b{fill:#f2f2f2}.c{fill:#603a16}.d{fill:#00974a}.e{fill:#a5b6b2}.f{fill:#f8bc81}.g{fill:#677271}.h{fill:#1aa27d}.i{fill:#fff}.j{fill:#22967c}.k{fill:#efca6c}.l{fill:#a6a8ab}.m,.u{fill:none}.m{stroke:#1a1a1a;stroke-width:2px}.m,.r,.u{stroke-miterlimit:10}.n{fill:#1dbd90}.o{fill:#e6e6e6}.p{fill:#c1c3c5}.q{fill:#f59a2f}.r{stroke:#000;stroke-width:.69px}.s{fill:#e1e3e4}.t{fill:#edefef}.u{stroke:#f59a2f;stroke-width:1.98px}.v{fill:#ab6d1d}</style></defs><title>Service Unavailable</title><path class="a" d="M0 290h552.29v14.65H0z"/><path class="b" d="M0 304.65h552.29v14.65H0z"/><path class="c" d="M77.09 226.97h17.36V290H77.09z"/><path class="d" d="M22.29 258.85l63.48-108.71 63.47 108.71H22.29z"/><path class="d" d="M35.26 215.65l50.51-86.49 50.5 86.49H35.26z"/><path class="d" d="M123.3 172.4H48.23l37.54-64.27 37.53 64.27z"/><path class="a" d="M60.52 172.4h50.5l1.24 2.13H59.27l1.25-2.13zm-13 43.25h76.5l1.24 2.12H46.27l1.25-2.12z"/><path class="e" d="M224.93 110.08h23v176.25h-23zm215.14 0h23v176.25h-23zM325.18 45.75h5.25v46.83h-5.25zm30.38 0h5.25v46.83h-5.25z"/><path class="f" d="M158 87.92h372v20.67H158z"/><path class="b" d="M158 108.13h372v5.37H158z"/><path class="g" d="M214.16 284.83h259.67V290H214.16z"/><circle class="h" cx="343" cy="31.88" r="31.88"/><path class="i" d="M355.25 39.51a12.25 12.25 0 1 1-24.5 0C330.75 32.74 341.07 12 343 12c2.13 0 12.25 20.74 12.25 27.51z"/><path class="j" d="M269.24 213.17h43.45v71.67h-43.45zm106.07 0h43.45v71.79h-43.45z"/><path class="h" d="M247.93 173.17h21v21h-21zm171.14 0h21v21h-21z"/><rect class="i" x="272.71" y="219.08" width="36.5" height="20.29" rx="2.67" ry="2.67"/><rect class="i" x="378.78" y="219.4" width="36.5" height="19.67" rx="2.63" ry="2.63"/><path class="k" d="M269.24 207.17h43.45v6h-43.45zm106.07 0h43.45v6h-43.45z"/><path class="l" d="M312.69 231.5h5.5v16h-5.5zm57.12 0h5.5v16h-5.5z"/><path class="m" d="M318.19 239.5c4.88 0 1.58 25.26-6.3 45m58.01-45c-4.88 0-1.58 25.26 6.3 45"/><path class="n" d="M269.24 245.29h43.45v39.54h-43.45zm106.07 0h43.45v39.54h-43.45z"/><path class="o" d="M278.29 224.61h25.33v3h-25.33zm0 6.23h25.33v3h-25.33zm106.08-6.23h25.33v3h-25.33zm0 6.23h25.33v3h-25.33z"/><path class="i" d="M259.19 190.54a.9.9 0 0 1-.27-.66v-11.16l-1.34.57a1.55 1.55 0 0 1-.59.13.92.92 0 0 1-.67-.26.88.88 0 0 1-.27-.66 1 1 0 0 1 .15-.54.86.86 0 0 1 .46-.34l2.86-1a1.17 1.17 0 0 1 .35-.07.88.88 0 0 1 .66.27 1 1 0 0 1 .26.69v12.41a.9.9 0 0 1-.27.66.92.92 0 0 1-.68.27.88.88 0 0 1-.65-.31zm167.31 0a.9.9 0 0 1-.27-.66 1.33 1.33 0 0 1 .17-.59l5.25-10.91h-5.56a.93.93 0 1 1 0-1.87h7a.94.94 0 0 1 .93.93 1.29 1.29 0 0 1-.13.49L428 190.3a.94.94 0 0 1-.37.38 1 1 0 0 1-.5.14.88.88 0 0 1-.63-.28z"/><circle class="o" cx="343" cy="39.54" r="8.29"/><path class="p" d="M391.34 298a19.2 19.2 0 0 1-.21 2.84h-5.6a13.73 13.73 0 1 0-27 0H353a19.29 19.29 0 1 1 38.34-2.84zm-124.84 0a19.2 19.2 0 0 1-.21 2.84h-5.6a13.73 13.73 0 1 0-27 0h-4.5a2.87 2.87 0 0 1-1.3-2.84 19.29 19.29 0 1 1 38.58 0z"/><path class="q" d="M389.95 300.85h5.64c6.23 0 6.23-16.78 0-16.78-1.31-6.32-6.28-14.18-18.07-14.49-2.51-.07-29.41-1.78-32.7-1.78-8.89-8-21.28-17.08-35-19.74-33.9-6.59-60.92 3.54-64.5 6.63-2.54.14-4.93 0-5.8 0-1.84-.07-2.25 3.24-.85 3.37.39 0 2.24.27 3.27.27s-4.83 4.91-5.4 5.19-4-.1-5.33.41-13.05 13.07-13.05 22.33c0 9.6 10 14.76 11.13 14.6-1.73-11.87 7.05-20.53 18.07-20.53 11.36 0 19.37 9 17.79 20.53h89c-1.42-10.13 5.4-20.19 18.08-20.19a18.07 18.07 0 0 1 17.72 20.18z"/><path class="i" d="M231.57 267.15l-5.11 7H236c4.75 0 4-7 0-7zm143.51 5.92c-.81 1.54 2.76 4.36 7.47 6.85s10.89 4.94 10.24 3.15a16.37 16.37 0 0 0-7.75-9c-4.7-2.56-9.15-2.53-9.96-1zm22.04 15.29h-3.68v5.72h3.68c1.21 0 1.22-5.72 0-5.72z"/><circle class="r" cx="247.21" cy="298.24" r="13.73"/><circle class="s" cx="247.21" cy="298.24" r="9.46"/><circle class="r" cx="372.05" cy="298.24" r="13.73"/><circle class="s" cx="372.05" cy="298.24" r="9.46"/><path class="t" d="M338.11 267.8H250.9c-3 0 2.35-14.83 15.11-16.61 43.2-6.03 58.77 5.33 72.1 16.61z"/><path class="u" d="M275.99 249.51v20.18"/><path class="v" d="M325.94 265.56h12.16v5.48h-12.16zm-96.66 35.3c-.86.13-6.2-2.61-8.94-7.18h9.21a19.11 19.11 0 0 0-.27 7.18zm124.83-.01h-89a23.13 23.13 0 0 0 .2-2.88 18.16 18.16 0 0 0-.46-4.23l89.55.14a22.67 22.67 0 0 0-.29 6.97zM400.2 294c-.31 3.76-2 6.89-4.61 6.89h-5.67a14.36 14.36 0 0 0 .13-2.81 19.94 19.94 0 0 0-.64-4.1z"/></svg>