<svg xmlns="http://www.w3.org/2000/svg" viewBox="0 0 552.29 350"><defs><style>.cls-1{fill:#0a783d;}.cls-2{fill:#f2f2f2;}.cls-3{fill:#603a16;}.cls-4{fill:#00974a;}.cls-5{fill:#a5b6b2;}.cls-6{fill:#f8bc81;}.cls-7{fill:#677271;}.cls-8{fill:#1aa27d;}.cls-9{fill:#fff;}.cls-10{fill:#22967c;}.cls-11{fill:#efca6c;}.cls-12{fill:#a6a8ab;}.cls-13,.cls-21{fill:none;}.cls-13{stroke:#1a1a1a;stroke-width:2px;}.cls-13,.cls-18,.cls-21{stroke-miterlimit:10;}.cls-14{fill:#1dbd90;}.cls-15{fill:#e6e6e6;}.cls-16{fill:#c1c3c5;}.cls-17{fill:#f59a2f;}.cls-18{stroke:#000;stroke-width:0.69px;}.cls-19{fill:#e1e3e4;}.cls-20{fill:#edefef;}.cls-21{stroke:#f59a2f;stroke-width:1.98px;}.cls-22{fill:#ab6d1d;}</style></defs><title>Website Pages</title><g id="Server_Down" data-name="Server Down"><rect class="cls-1" y="305.35" width="552.29" height="14.65"/><rect class="cls-2" y="320" width="552.29" height="14.65"/><g id="Rural_Highway" data-name="Rural Highway"><rect class="cls-3" x="77.09" y="242.32" width="17.36" height="63.03"/><polygon class="cls-4" points="22.29 274.2 85.77 165.49 149.24 274.2 22.29 274.2"/><polygon class="cls-4" points="35.26 231 85.77 144.51 136.27 231 35.26 231"/><polygon class="cls-4" points="123.3 187.76 48.23 187.76 85.77 123.48 123.3 187.76"/><polygon class="cls-1" points="60.52 187.76 111.02 187.76 112.26 189.88 59.27 189.88 60.52 187.76"/><polygon class="cls-1" points="47.52 231 124.02 231 125.26 233.13 46.27 233.13 47.52 231"/></g><rect class="cls-5" x="224.93" y="125.44" width="23" height="176.25"/><rect class="cls-5" x="440.07" y="125.44" width="23" height="176.25"/><rect class="cls-5" x="325.18" y="61.1" width="5.25" height="46.83"/><rect class="cls-5" x="355.56" y="61.1" width="5.25" height="46.83"/><rect class="cls-6" x="158" y="103.27" width="372" height="20.67"/><rect class="cls-2" x="158" y="123.48" width="372" height="5.37"/><rect class="cls-7" x="214.16" y="300.19" width="259.67" height="5.17"/><circle class="cls-8" cx="343" cy="47.23" r="31.88"/><path class="cls-9" d="M355.25,54.86a12.25,12.25,0,1,1-24.5,0c0-6.77,10.32-27.52,12.25-27.52C345.13,27.34,355.25,48.1,355.25,54.86Z"/><rect class="cls-10" x="269.24" y="228.52" width="43.45" height="71.67"/><rect class="cls-10" x="375.31" y="228.52" width="43.45" height="71.79"/><rect class="cls-8" x="247.93" y="188.52" width="21" height="21"/><rect class="cls-8" x="419.07" y="188.52" width="21" height="21"/><rect class="cls-9" x="272.71" y="234.44" width="36.5" height="20.29" rx="2.67" ry="2.67"/><rect class="cls-9" x="378.78" y="234.75" width="36.5" height="19.67" rx="2.63" ry="2.63"/><rect class="cls-11" x="269.24" y="222.52" width="43.45" height="6"/><rect class="cls-11" x="375.31" y="222.52" width="43.45" height="6"/><rect class="cls-12" x="312.69" y="246.85" width="5.5" height="16"/><rect class="cls-12" x="369.81" y="246.85" width="5.5" height="16"/><path class="cls-13" d="M318.19,254.85c4.88,0,1.58,25.26-6.3,45"/><path class="cls-13" d="M369.9,254.85c-4.88,0-1.58,25.26,6.3,45"/><rect class="cls-14" x="269.24" y="260.64" width="43.45" height="39.54"/><rect class="cls-14" x="375.31" y="260.64" width="43.45" height="39.54"/><rect class="cls-15" x="278.29" y="239.97" width="25.33" height="3"/><rect class="cls-15" x="278.29" y="246.2" width="25.33" height="3"/><rect class="cls-15" x="384.37" y="239.97" width="25.33" height="3"/><rect class="cls-15" x="384.37" y="246.2" width="25.33" height="3"/><path class="cls-9" d="M259.19,205.89a.9.9,0,0,1-.27-.66V194.07l-1.34.57a1.55,1.55,0,0,1-.59.13.92.92,0,0,1-.67-.26.88.88,0,0,1-.27-.66,1,1,0,0,1,.15-.54.86.86,0,0,1,.46-.34l2.86-1a1.17,1.17,0,0,1,.35-.07.88.88,0,0,1,.66.27,1,1,0,0,1,.26.69v12.41a.9.9,0,0,1-.27.66.92.92,0,0,1-.68.27A.88.88,0,0,1,259.19,205.89Z"/><path class="cls-9" d="M426.5,205.89a.9.9,0,0,1-.27-.66,1.33,1.33,0,0,1,.17-.59l5.25-10.91h-5.56a.93.93,0,1,1,0-1.87h7a.94.94,0,0,1,.93.93,1.29,1.29,0,0,1-.13.49L428,205.66a.94.94,0,0,1-.37.38,1,1,0,0,1-.5.14A.88.88,0,0,1,426.5,205.89Z"/><circle class="cls-15" cx="343" cy="54.89" r="8.29"/><path class="cls-16" d="M391.34,313.36a19.2,19.2,0,0,1-.21,2.84h-5.6a13.73,13.73,0,1,0-27,0H353a19.29,19.29,0,1,1,38.37-2.84Z"/><path class="cls-16" d="M266.5,313.36a19.2,19.2,0,0,1-.21,2.84h-5.6a13.73,13.73,0,1,0-27,0h-4.5a2.87,2.87,0,0,1-1.3-2.84,19.29,19.29,0,1,1,38.58,0Z"/><path id="Fill" class="cls-17" d="M389.95,316.2h5.64c6.23,0,6.23-16.78,0-16.78-1.31-6.32-6.28-14.18-18.07-14.49-2.51-.07-29.41-1.78-32.7-1.78-8.89-8-21.28-17.08-35-19.74C276,256.82,249,267,245.39,270c-2.54.14-4.93,0-5.8,0-1.84-.07-2.25,3.24-.85,3.37.39,0,2.24.27,3.27.27s-4.83,4.91-5.4,5.19-4-.1-5.33.41-13.13,13.09-13.13,22.34c0,9.6,10,14.76,11.13,14.6-1.73-11.87,7.05-20.53,18.07-20.53,11.36,0,19.37,9,17.79,20.53h89c-1.42-10.13,5.4-20.19,18.08-20.19A18.07,18.07,0,0,1,389.95,316.2Z"/><path id="Back" class="cls-9" d="M231.57,282.51l-5.11,7H236c4.75,0,4-7,0-7Z"/><path id="Front:_1" data-name="Front: 1" class="cls-9" d="M375.08,288.43c-.81,1.54,2.76,4.36,7.47,6.85s10.89,4.94,10.24,3.15a16.37,16.37,0,0,0-7.75-9C380.34,286.87,375.89,286.89,375.08,288.43Z"/><path id="Front:_2" data-name="Front: 2" class="cls-9" d="M397.12,303.71h-3.68v5.72h3.68C398.33,309.43,398.34,303.71,397.12,303.71Z"/><circle id="Tyre" class="cls-18" cx="247.21" cy="313.59" r="13.73"/><circle id="Rim" class="cls-19" cx="247.21" cy="313.59" r="9.46"/><circle id="Tyre-2" data-name="Tyre" class="cls-18" cx="372.05" cy="313.59" r="13.73"/><circle id="Rim-2" data-name="Rim" class="cls-19" cx="372.05" cy="313.59" r="9.46"/><path id="Front" class="cls-20" d="M338.11,283.15H250.9c-3,0,2.35-14.83,15.11-16.61C309.21,260.51,324.78,271.87,338.11,283.15Z"/><line class="cls-21" x1="275.99" y1="264.86" x2="275.99" y2="285.04"/><rect class="cls-22" x="325.94" y="280.91" width="12.16" height="5.48"/><path class="cls-22" d="M229.28,316.21c-.86.13-6.2-2.61-8.94-7.18h9.21A19.11,19.11,0,0,0,229.28,316.21Z"/><path class="cls-22" d="M354.11,316.21h-89a23.13,23.13,0,0,0,.2-2.88,18.16,18.16,0,0,0-.46-4.23l89.55.14A22.67,22.67,0,0,0,354.11,316.21Z"/><path class="cls-22" d="M400.2,309.32c-.31,3.76-2,6.89-4.61,6.89h-5.67a14.36,14.36,0,0,0,.13-2.81,19.94,19.94,0,0,0-.64-4.1Z"/></g></svg>