<svg xmlns="http://www.w3.org/2000/svg" viewBox="0 0 20.76 25.51"><defs><style>.a{fill:#58595b}</style></defs><title>Apple Logo</title><path class="a" d="M17.34 13.57A5.8 5.8 0 0 1 20.1 8.7a5.93 5.93 0 0 0-4.68-2.53c-2-.21-3.87 1.18-4.88 1.18S8 6.2 6.32 6.23a6.23 6.23 0 0 0-5.24 3.2c-2.27 3.92-.58 9.68 1.59 12.85 1.09 1.55 2.35 3.29 4 3.23s2.23-1 4.19-1 2.51 1 4.21 1 2.84-1.56 3.89-3.13a12.84 12.84 0 0 0 1.78-3.62 5.6 5.6 0 0 1-3.4-5.19zm-3.2-9.48A5.71 5.71 0 0 0 15.44 0a5.81 5.81 0 0 0-3.76 1.94 5.43 5.43 0 0 0-1.34 3.94 4.8 4.8 0 0 0 3.8-1.79z"/></svg>