<svg xmlns="http://www.w3.org/2000/svg" viewBox="0 0 141.73 141.73"><defs><style>.a{fill:#c4c1c1}.b{fill:#f59b31}.c{fill:#eeefef}.d{fill:#fffbfd}.e,.f{fill:#1b1c1c}.f{stroke:#1b1c1c;stroke-width:.68px}.f,.i{stroke-miterlimit:10}.g{fill:#e1e3e4}.h{fill:#ab6e29}.i{fill:none;stroke:#f59b31;stroke-width:1.5px}</style></defs><title>Icons</title><path class="a" d="M49.56 89.3H46a12.52 12.52 0 0 0-24.79 0h-2.12v-1.78a12.55 12.55 0 0 1 .41-2.06c.06-.2.11-.4.18-.59s.19-.54.3-.81.13-.32.2-.48.2-.44.32-.66.13-.25.21-.38a5.83 5.83 0 0 1 .33-.56 11.78 11.78 0 0 1 .67-1 14.82 14.82 0 0 1 11.77-5.59A15.81 15.81 0 0 1 45.72 81l.13.17a8 8 0 0 1 .51.7 7.23 7.23 0 0 1 .5.78c.06.09.11.18.15.27a8.24 8.24 0 0 1 .39.76.78.78 0 0 1 .08.18 5.62 5.62 0 0 1 .28.66 1.83 1.83 0 0 1 .13.34c.1.25.18.5.25.75s.11.42.15.64.1.44.14.67v.18c0 .07.07.42.09.63s.06.53.07.81 0 .49 0 .74zm83.44 0h-3.68a12.68 12.68 0 0 0-25.07 0h-2.55a15.23 15.23 0 0 1 2.45-7.77 16.5 16.5 0 0 1 12.47-6.12A17.32 17.32 0 0 1 129 81l.32.38a12.73 12.73 0 0 1 2.25 3.9c.07.18.12.36.18.54a12.48 12.48 0 0 1 .44 2.08v1.38z"/><path class="b" d="M136.91 89.3h-4.63v-1.38a12.61 12.61 0 0 0-.43-2.08c-.06-.18-.11-.36-.18-.54a12.77 12.77 0 0 0-2.22-3.9L129 81a17 17 0 0 0-12.2-5.63 16.25 16.25 0 0 0-12.34 6.12l-.15.2a10.57 10.57 0 0 0-.78 1.19 9.89 9.89 0 0 0-.65 1.27c-.09.19-.17.38-.24.57s-.2.54-.29.83-.13.43-.19.66-.1.44-.14.67a.39.39 0 0 0 0 .11q-.07.35-.1.7a6.63 6.63 0 0 0-.07.67.54.54 0 0 0 0 .13v.74H48.64v-.74c0-.24 0-.54-.07-.81s-.06-.42-.09-.63 0-.12 0-.18c0-.23-.09-.45-.14-.67s-.1-.43-.15-.64-.15-.5-.25-.75a2.18 2.18 0 0 0-.13-.34 5.62 5.62 0 0 0-.28-.66.78.78 0 0 0-.08-.18 8.24 8.24 0 0 0-.39-.76c0-.09-.1-.18-.15-.27-.15-.27-.32-.53-.5-.78s-.33-.48-.51-.7l-.18-.12a15.81 15.81 0 0 0-12.13-5.59A14.82 14.82 0 0 0 21.82 81a11.78 11.78 0 0 0-.67 1 5.83 5.83 0 0 0-.33.56c-.08.12-.14.25-.21.38s-.22.44-.32.66-.14.31-.2.48-.21.53-.3.81-.12.39-.18.59a12.55 12.55 0 0 0-.41 2.06v1.78H12c-2.08 0-2.12-8.27.12-8.27.08-1.22.13-3.71.11-5.55-.08-7.34-.22-14.41.34-16.48s5.32-20.86 7.68-20.86h55.91c2.1 0 12.48 18.48 13.59 19.27s29.82 2.42 34.11 2.92c8.69 1 8.81 8.37 8.81 15.28 3.42 0 5 2.53 5.47 5.43.7 3.79-.39 8.24-1.23 8.24z"/><path class="c" d="M86 57.46H54V40.39h20.15C77.11 40.39 86 57.46 86 57.46zm-35.65 0H16.47c1.61-6 4.87-17.07 5.71-17.07h28.17z"/><rect class="d" x="13.56" y="62.7" width="2.62" height="10.58" rx=".35" ry=".35"/><rect class="d" x="128.51" y="67.95" width="2.52" height="7.23" rx=".56" ry=".56"/><rect class="e" x="3.37" y="53.8" width="7.38" height="24.73" rx="3.08" ry="3.08"/><path class="f" d="M129.5 91.08a12.52 12.52 0 0 1-25 0 13.31 13.31 0 0 1 .12-1.77 12.52 12.52 0 0 1 24.79 0 13.31 13.31 0 0 1 .09 1.77z"/><circle class="g" cx="116.99" cy="91.08" r="8.8"/><path class="f" d="M46.16 91.08a12.52 12.52 0 0 1-25 0 13.31 13.31 0 0 1 .12-1.77 12.52 12.52 0 0 1 24.79 0 13.31 13.31 0 0 1 .09 1.77z"/><circle class="g" cx="33.64" cy="91.08" r="8.8"/><rect class="h" x="53.53" y="91.45" width="33.06" height="1.75" rx=".29" ry=".29"/><path class="h" d="M21.82 81a11.78 11.78 0 0 0-.67 1 5.83 5.83 0 0 0-.33.56 4.17 4.17 0 0 0-.21.38c-.12.22-.22.44-.32.66a3.62 3.62 0 0 0-.2.48c-.11.27-.21.53-.3.81a5.18 5.18 0 0 0-.18.59 12.55 12.55 0 0 0-.41 2.06v1.78H12c-2.08 0-2.12-8.27.12-8.27h9.68zm83.07 0l-.33.41a.24.24 0 0 0-.06.09l-.15.2a10.57 10.57 0 0 0-.78 1.19 9.89 9.89 0 0 0-.65 1.27c-.09.19-.17.38-.24.57s-.2.54-.29.83-.13.43-.19.66-.1.44-.14.67a.39.39 0 0 0 0 .11q-.07.35-.1.7a6.63 6.63 0 0 0-.07.67.54.54 0 0 0 0 .13v.74H48.64v-.74c0-.24 0-.54-.07-.81s-.06-.42-.09-.63 0-.12 0-.18c0-.23-.09-.45-.14-.67s-.1-.43-.15-.64-.15-.5-.25-.75a2.18 2.18 0 0 0-.13-.34 5.62 5.62 0 0 0-.28-.66.78.78 0 0 0-.08-.18 8.24 8.24 0 0 0-.39-.76c0-.09-.1-.18-.15-.27a7.23 7.23 0 0 0-.5-.78 8 8 0 0 0-.51-.7l-.18-.13zm32.02 8.3h-4.63v-1.38a12.61 12.61 0 0 0-.43-2.08c-.06-.18-.11-.36-.18-.54a12.77 12.77 0 0 0-2.22-3.9L129 81h9.1c.74 3.85-.35 8.3-1.19 8.3zM77.04 55.04h8.99v3.58h-8.99z"/><path class="i" d="M22.51 40.2v17.55"/></svg>