<svg xmlns="http://www.w3.org/2000/svg" viewBox="0 0 184.25 141.73"><defs><style>.a{fill:#c2c3c4}.b{fill:#f59b31}.c{fill:#fff}.d{fill:#010101;stroke:#010101;stroke-width:.65px}.d,.g{stroke-miterlimit:10}.e{fill:#e1e3e4}.f{fill:#eeefef}.g{fill:none;stroke:#f59b31;stroke-width:1.85px}.h{fill:#ab6e29}</style></defs><title>Icons</title><path class="a" d="M161.09 86.9a16.12 16.12 0 0 1-.18 2.39h-4.7a11.53 11.53 0 1 0-22.64 0h-4.7a16.2 16.2 0 1 1 32.22-2.39zm-104.82 0a16.12 16.12 0 0 1-.18 2.39h-4.7a11.53 11.53 0 1 0-22.64 0H25a2.41 2.41 0 0 1-1.1-2.39 16.2 16.2 0 1 1 32.39 0z"/><path class="b" d="M159.91 89.28h4.74c5.23 0 5.23-14.09 0-14.09-1.1-5.31-5.28-11.91-15.17-12.17-2.11-.06-24.7-1.49-27.45-1.49-7.43-6.7-17.84-14.34-29.33-16.53-28.46-5.54-51.16 3-54.16 5.57-2.13.12-4.14 0-4.87 0-1.55-.06-1.89 2.72-.71 2.83.33 0 1.88.22 2.75.22s-4.06 4.13-4.53 4.36-3.37-.08-4.48.35-11 11-11 18.76c0 8.06 8.36 12.39 9.34 12.26C23.56 79.31 30.94 72 40.19 72c9.54 0 16.27 7.52 14.94 17.24h74.7c-1.19-8.5 4.54-17 15.18-17a15.17 15.17 0 0 1 14.9 17.04z"/><path class="c" d="M26.94 61l-4.29 5.84h8c4 0 3.32-5.84 0-5.84zm120.49 5c-.68 1.29 2.32 3.66 6.27 5.75s9.14 4.15 8.6 2.64a13.74 13.74 0 0 0-6.51-7.59c-3.94-2.15-7.68-2.13-8.36-.8zm18.51 12.79h-3.09v4.8h3.09c1.06 0 1.06-4.8 0-4.8z"/><circle class="d" cx="40.07" cy="87.09" r="11.53"/><circle class="e" cx="40.07" cy="87.09" r="7.94"/><circle class="d" cx="144.89" cy="87.09" r="11.53"/><circle class="e" cx="144.89" cy="87.09" r="7.94"/><path class="f" d="M116.39 61.53H43.16c-2.5 0 2-12.46 12.69-14 36.28-5.01 49.35 4.53 60.54 14z"/><path class="g" d="M64.23 46.17v16.94"/><path class="h" d="M106.17 59.64h10.21v4.6h-10.21zM25 89.28c-.72.11-5.21-2.19-7.51-6h7.73a16 16 0 0 0-.22 6zm104.83 0H55.12a19.42 19.42 0 0 0 .17-2.42 15.25 15.25 0 0 0-.39-3.55l75.19.12a19 19 0 0 0-.26 5.85zm38.69-5.78c-.26 3.15-1.64 5.79-3.87 5.79h-4.76a12.06 12.06 0 0 0 .11-2.36 16.74 16.74 0 0 0-.54-3.45z"/></svg>