<svg id="Coming_Soon" data-name="Coming Soon" xmlns="http://www.w3.org/2000/svg" viewBox="0 0 552.29 350"><defs><style>.cls-1{fill:#ed1c24;}.cls-2{fill:#c1c3c5;}.cls-3{fill:#f59a2f;}.cls-4{fill:#fff;}.cls-5{stroke:#000;stroke-width:1.81px;}.cls-5,.cls-8{stroke-miterlimit:10;}.cls-6{fill:#e1e3e4;}.cls-7{fill:#edefef;}.cls-8{fill:none;stroke:#f59a2f;stroke-width:5.18px;}.cls-9{fill:#ab6d1d;}.cls-10{fill:#d81d2a;}.cls-11{fill:#e01e2c;}</style></defs><title>Website Pages</title><polygon class="cls-1" points="351.82 130.65 246.36 153.85 240.31 126.35 345.77 103.15 341.55 118.49 351.82 130.65"/><polygon class="cls-1" points="129.86 119.77 228.8 163.03 240.08 137.23 141.13 93.97 142.3 109.84 129.86 119.77"/><path class="cls-2" d="M491.22,250.15a50.28,50.28,0,0,1-.55,7.44H476a36,36,0,1,0-70.6,0H390.74a50.51,50.51,0,1,1,100.48-7.45Z"/><path class="cls-2" d="M164.31,250.15a50.28,50.28,0,0,1-.55,7.44H149.1a36,36,0,1,0-70.6,0H66.7c-3.32-2-3.42-4.92-3.42-7.45a50.51,50.51,0,1,1,101,0Z"/><path id="Fill" class="cls-3" d="M487.56,257.58h14.78c16.32,0,16.32-43.95.09-43.95-3.43-16.55-16.45-37.14-47.31-38-6.57-.17-77-4.65-85.62-4.65-23.27-20.88-55.73-44.72-91.57-51.69-88.76-17.27-159.54,9.28-168.9,17.37-6.65.38-12.91,0-15.2,0-4.82-.17-5.89,8.49-2.22,8.83,1,.09,5.87.69,8.57.69S87.52,159,86,159.78s-10.52-.25-14,1.08c-3.67,1.42-34.38,34.28-34.38,58.5,0,25.13,26.06,38.65,29.14,38.23-4.53-31.09,18.47-53.77,47.31-53.77,29.75,0,50.73,23.44,46.59,53.76h233c-3.72-26.52,14.15-52.88,47.34-52.88C469,204.7,490.76,229.6,487.56,257.58Z"/><path id="Back" class="cls-4" d="M72.84,169.34,59.46,187.57H84.33c12.44,0,10.36-18.22,0-18.22Z"/><path id="Front:_1" data-name="Front: 1" class="cls-4" d="M448.62,184.85c-2.13,4,7.24,11.42,19.57,17.94S496.7,215.74,495,211a42.86,42.86,0,0,0-20.31-23.66C462.41,180.76,450.75,180.82,448.62,184.85Z"/><path id="Front:_2" data-name="Front: 2" class="cls-4" d="M506.34,224.87H496.7v15h9.64C509.52,239.84,509.55,224.87,506.34,224.87Z"/><circle id="Tyre" class="cls-5" cx="113.8" cy="250.75" r="35.95"/><circle id="Rim" class="cls-6" cx="113.8" cy="250.75" r="24.78"/><circle id="Tyre-2" data-name="Tyre" class="cls-5" cx="440.71" cy="250.75" r="35.95"/><circle id="Rim-2" data-name="Rim" class="cls-6" cx="440.71" cy="250.75" r="24.78"/><path id="Front" class="cls-7" d="M351.81,171H123.44c-7.78,0,6.16-38.85,39.57-43.51C276.15,111.74,316.9,141.5,351.81,171Z"/><line class="cls-8" x1="189.16" y1="123.14" x2="189.16" y2="175.98"/><rect class="cls-9" x="319.96" y="165.16" width="31.85" height="14.36"/><path class="cls-9" d="M66.85,257.6c-2.25.33-16.24-6.83-23.41-18.81H67.54A50.05,50.05,0,0,0,66.85,257.6Z"/><path class="cls-9" d="M393.72,257.59h-233a60.57,60.57,0,0,0,.52-7.54A47.55,47.55,0,0,0,160.06,239l234.5.37C392.72,246.63,393.52,255.94,393.72,257.59Z"/><path class="cls-9" d="M514.41,239.54c-.82,9.83-5.11,18-12.07,18H487.5a37.61,37.61,0,0,0,.34-7.35,52.22,52.22,0,0,0-1.67-10.74Z"/><path class="cls-10" d="M219.51,127.74c-10.74,1.71-25-1.08-38.89-8.46C165,111,153.91,99,150.42,88c10.43-1.45,23.9,1,37.14,7.42C204.51,103.72,216.47,116.36,219.51,127.74Z"/><path class="cls-1" d="M235.18,118.13c-2.79,5.24-8.42,8.45-15.67,9.6-3-11.38-15-24-31.95-32.27C174.33,89,160.85,86.59,150.42,88c-1.71-5.32-1.6-10.39.66-14.65,6.91-13,31.35-13.5,54.56-1.14S242.09,105.15,235.18,118.13Z"/><path class="cls-3" d="M257.39,92.2a14.86,14.86,0,0,1-.44,3.64A20.9,20.9,0,0,0,244,91.38h-3.54a20.89,20.89,0,0,0-12.92,4.45,14.84,14.84,0,0,1-.44-3.64,15.14,15.14,0,1,1,30.27,0Z"/><path class="cls-10" d="M265.15,127.74c10.74,1.71,25-1.08,38.89-8.46C319.67,111,330.75,99,334.24,88c-10.43-1.45-23.9,1-37.14,7.42C280.15,103.72,268.19,116.36,265.15,127.74Z"/><path class="cls-1" d="M249.48,118.13c2.79,5.24,8.42,8.45,15.67,9.6,3-11.38,15-24,31.95-32.27C310.34,89,323.81,86.59,334.24,88c1.71-5.32,1.6-10.39-.66-14.65-6.91-13-31.35-13.5-54.56-1.14S242.57,105.15,249.48,118.13Z"/><path class="cls-11" d="M240.49,91.38H244a21,21,0,0,1,21,21V257.61a0,0,0,0,1,0,0H219.44a0,0,0,0,1,0,0V112.43A21,21,0,0,1,240.49,91.38Z"/></svg>