<svg xmlns="http://www.w3.org/2000/svg" viewBox="0 0 476.88 226.08"><defs><style>.a{fill:#ed1c24}.b{fill:#c1c3c5}.c{fill:#f59a2f}.d{fill:#fff}.e{stroke:#000;stroke-width:1.81px}.e,.h{stroke-miterlimit:10}.f{fill:#e1e3e4}.g{fill:#edefef}.h{fill:none;stroke:#f59a2f;stroke-width:5.18px}.i{fill:#ab6d1d}.j{fill:#d81d2a}.k{fill:#e01e2c}</style></defs><title>Coming Soon</title><path class="a" d="M314.12 68.39L208.65 91.6l-6.05-27.5 105.47-23.2-4.23 15.34 10.28 12.15zM92.15 57.52l98.95 43.26 11.28-25.8-98.95-43.26 1.16 15.87-12.44 9.93z"/><path class="b" d="M453.51 187.9a50.28 50.28 0 0 1-.55 7.44H438.3a36 36 0 1 0-70.6 0H353a50.51 50.51 0 1 1 100.48-7.45zm-326.9 0a50.28 50.28 0 0 1-.55 7.44h-14.67a36 36 0 1 0-70.6 0H29c-3.32-2-3.42-4.92-3.42-7.45a50.51 50.51 0 1 1 101 0z"/><path class="c" d="M449.85 195.33h14.78c16.32 0 16.32-43.95.09-43.95-3.43-16.55-16.45-37.14-47.31-38-6.57-.17-77-4.65-85.62-4.65-23.27-20.88-55.73-44.72-91.57-51.69-88.77-17.22-159.54 9.33-168.9 17.42-6.65.38-12.91 0-15.2 0-4.82-.17-5.89 8.49-2.22 8.83 1 .09 5.87.69 8.57.69S49.82 96.79 48.34 97.53s-10.52-.25-14 1.08C30.71 100 0 132.9 0 157.12c0 25.13 26.06 38.65 29.14 38.23-4.53-31.09 18.47-53.77 47.31-53.77 29.75 0 50.73 23.44 46.59 53.76H356c-3.72-26.52 14.15-52.88 47.34-52.88 27.97-.01 49.72 24.89 46.51 52.87z"/><path class="d" d="M35.14 107.09l-13.38 18.23h24.87c12.44 0 10.36-18.22 0-18.22zm375.77 15.51c-2.13 4 7.24 11.42 19.57 17.94s28.51 12.95 26.81 8.25A42.86 42.86 0 0 0 437 125.13c-12.29-6.62-24-6.56-26.09-2.53zm57.72 40.02H459v15h9.64c3.18-.03 3.2-15-.01-15z"/><circle class="e" cx="76.09" cy="188.5" r="35.95"/><circle class="f" cx="76.09" cy="188.5" r="24.78"/><circle class="e" cx="403" cy="188.5" r="35.95"/><circle class="f" cx="403" cy="188.5" r="24.78"/><path class="g" d="M314.11 108.78H85.74c-7.78 0 6.16-38.85 39.57-43.51 113.13-15.78 153.89 13.98 188.8 43.51z"/><path class="h" d="M151.45 60.89v52.84"/><path class="i" d="M282.25 102.91h31.85v14.36h-31.85zM29.14 195.35c-2.25.33-16.24-6.83-23.41-18.81h24.11a50.05 50.05 0 0 0-.7 18.81zm326.86-.01H123a60.57 60.57 0 0 0 .52-7.54 47.55 47.55 0 0 0-1.21-11.08l234.5.37c-1.81 7.29-1 16.6-.81 18.25zm120.7-18.05c-.82 9.83-5.11 18-12.07 18h-14.84a37.61 37.61 0 0 0 .34-7.35 52.22 52.22 0 0 0-1.67-10.74z"/><path class="j" d="M181.81 65.49c-10.74 1.71-25-1.08-38.89-8.46-15.62-8.3-26.7-20.31-30.2-31.23 10.43-1.45 23.9 1 37.14 7.42 16.95 8.25 28.91 20.89 31.95 32.27z"/><path class="a" d="M197.48 55.88c-2.79 5.24-8.42 8.45-15.67 9.6-3-11.38-15-24-31.95-32.27-13.24-6.46-26.72-8.87-37.14-7.42-1.71-5.32-1.6-10.39.66-14.65 6.91-13 31.35-13.5 54.56-1.14s36.45 32.9 29.54 45.88z"/><path class="c" d="M219.69 29.95a14.86 14.86 0 0 1-.44 3.64 20.9 20.9 0 0 0-12.93-4.45h-3.54a20.89 20.89 0 0 0-12.92 4.45 14.84 14.84 0 0 1-.44-3.64 15.14 15.14 0 1 1 30.27 0z"/><path class="j" d="M227.45 65.49c10.74 1.71 25-1.08 38.89-8.46 15.62-8.3 26.7-20.31 30.2-31.23-10.43-1.45-23.9 1-37.14 7.42-16.95 8.25-28.91 20.89-31.95 32.27z"/><path class="a" d="M211.78 55.88c2.79 5.24 8.42 8.45 15.67 9.6 3-11.38 15-24 31.95-32.27 13.24-6.46 26.72-8.87 37.14-7.42 1.71-5.32 1.6-10.39-.66-14.65C289-1.85 264.53-2.36 241.32 10s-36.45 32.9-29.54 45.88z"/><path class="k" d="M202.78 29.13h3.54a21 21 0 0 1 21 21v145.23h-45.59V50.18a21 21 0 0 1 21-21z"/></svg>