<svg xmlns="http://www.w3.org/2000/svg" viewBox="0 0 413.67 125.35"><defs><style>.cls-1{fill:#4d4d4d;}.cls-2{fill:#ccc;}.cls-3{fill:#5c4a54;}.cls-4{fill:#00974a;}.cls-5{fill:#5cab6b;}.cls-20,.cls-6{fill:none;}.cls-6{stroke:#1a1a1a;stroke-width:2.44px;}.cls-14,.cls-18,.cls-20,.cls-6{stroke-miterlimit:10;}.cls-7{fill:#7d2416;}.cls-8{fill:#edd3b9;}.cls-9{fill:#8c4121;}.cls-10{fill:#d9c391;}.cls-11{fill:#dead4b;}.cls-12{fill:#c4c1c1;}.cls-13{fill:#e1e3e4;}.cls-14{fill:#1b1c1c;stroke:#1b1c1c;stroke-width:0.79px;}.cls-15{fill:#fff;}.cls-16{fill:#c1c3c5;}.cls-17{fill:#f59a2f;}.cls-18{stroke:#000;stroke-width:0.56px;}.cls-19{fill:#edefef;}.cls-20{stroke:#f59a2f;stroke-width:1.61px;}.cls-21{fill:#ab6d1d;}</style></defs><title>support</title><g id="Support"><rect class="cls-1" y="110.7" width="413.67" height="14.65"/><rect class="cls-2" y="103.59" width="413.67" height="6.99"/><g id="Freeway"><path class="cls-3" d="M34.1,26.14h0a2.63,2.63,0,0,1,2.63,2.63v74.83a0,0,0,0,1,0,0H31.47a0,0,0,0,1,0,0V28.77a2.63,2.63,0,0,1,2.63-2.63Z"/><path class="cls-3" d="M77.19,26.14h0a2.63,2.63,0,0,1,2.63,2.63v74.83a0,0,0,0,1,0,0H74.56a0,0,0,0,1,0,0V28.77a2.63,2.63,0,0,1,2.63-2.63Z"/><rect class="cls-4" x="21.98" y="21.67" width="67.32" height="58.01" rx="4.05" ry="4.05"/><rect class="cls-5" x="31.84" y="55.03" width="47.76" height="4.34"/><rect class="cls-5" x="36.54" y="64.03" width="38.35" height="4.34"/></g><line class="cls-6" x1="218.44" y1="13.4" x2="218.44" y2="62.77"/><polygon class="cls-7" points="215.34 13.4 275.95 79.21 293.22 62.41 229.12 0 215.34 13.4"/><polygon class="cls-8" points="219.23 17.63 233.16 3.93 229.12 0 215.33 13.41 219.23 17.63"/><path class="cls-9" d="M305.53,102.4h69.56V33.81A29.85,29.85,0,0,0,345.24,4H311.89a6.36,6.36,0,0,0-6.36,6.36Z"/><path class="cls-9" d="M259.16,48.65h36.91a0,0,0,0,1,0,0v35.3a18.46,18.46,0,0,1-18.46,18.46h0a18.46,18.46,0,0,1-18.46-18.46V48.65a0,0,0,0,1,0,0Z" transform="translate(555.23 151.04) rotate(-180)"/><rect class="cls-10" x="182.17" y="96.09" width="197.38" height="7.53" rx="3.69" ry="3.69" transform="translate(561.72 199.71) rotate(-180)"/><rect class="cls-7" x="186.63" y="81.34" width="188.46" height="14.76" transform="translate(561.72 177.43) rotate(-180)"/><circle class="cls-11" cx="277.62" cy="62.43" r="7.63"/><line class="cls-12" x1="359.6" y1="103.84" x2="359.57" y2="103.84"/><path class="cls-13" d="M313.35,103.59H358c0-.41,0-.82,0-1.22a22.07,22.07,0,0,0-1.29-6.3,22.41,22.41,0,0,0-9.26-11.4,22.28,22.28,0,0,0-23.48,0,22.41,22.41,0,0,0-9.26,11.4,22.07,22.07,0,0,0-1.29,6.3C313.37,102.78,313.35,103.18,313.35,103.59Z"/><circle id="Tyre" class="cls-14" cx="335.69" cy="103.67" r="16.23"/><circle id="Rim" class="cls-13" cx="335.69" cy="103.67" r="11.26"/><path class="cls-13" d="M207.19,103.59h44.66c0-.41,0-.82,0-1.22a22.07,22.07,0,0,0-1.29-6.3,22.41,22.41,0,0,0-9.26-11.4,22.28,22.28,0,0,0-23.48,0,22.41,22.41,0,0,0-9.26,11.4,22.07,22.07,0,0,0-1.29,6.3C207.2,102.78,207.19,103.18,207.19,103.59Z"/><circle id="Tyre-2" data-name="Tyre" class="cls-14" cx="229.52" cy="103.67" r="16.23"/><circle id="Rim-2" data-name="Rim" class="cls-13" cx="229.52" cy="103.67" r="11.26"/><path class="cls-15" d="M316.18,15.31h48.26a0,0,0,0,1,0,0V45.61a0,0,0,0,1,0,0h-24a24.26,24.26,0,0,1-24.26-24.26v-6A0,0,0,0,1,316.18,15.31Z" transform="translate(680.62 60.92) rotate(-180)"/><rect class="cls-8" x="355" y="39.63" width="14.41" height="10.38" transform="translate(724.42 89.65) rotate(-180)"/><rect class="cls-15" x="368.73" y="75.29" width="4.27" height="12.1" transform="translate(741.72 162.67) rotate(-180)"/><rect class="cls-15" x="188.9" y="84.39" width="4.27" height="8.64" transform="translate(382.08 177.43) rotate(-180)"/><path class="cls-16" d="M99.29,113.73a15.61,15.61,0,0,0,1,2.08l4.22-1.7A11.16,11.16,0,1,1,124.87,106l4.22-1.7a15.68,15.68,0,1,0-29.81,9.47Z"/><path class="cls-16" d="M193.46,75.93a15.61,15.61,0,0,0,1,2.08l4.22-1.7A11.16,11.16,0,1,1,219,68.16l3.4-1.36a2.33,2.33,0,0,0,.12-2.54,15.68,15.68,0,1,0-29.1,11.68Z"/><path id="Fill" class="cls-17" d="M101.2,115.45l-4.26,1.71c-4.7,1.89-9.78-10.77-5.11-12.65-.93-5.16.45-12.6,9.24-16.4,1.87-.81,21.65-10.25,24.13-11.24,4.29-8.71,10.88-19.33,20.4-25.48,23.57-15.24,47-15.77,50.66-14.52,2-.66,3.72-1.48,4.37-1.77,1.37-.61,2.68,1.77,1.66,2.29-.28.15-1.61.88-2.39,1.19s5.13,2.24,5.64,2.28,3-1.29,4.15-1.3,13.87,5.9,16.67,12.88c2.9,7.24-3,14.15-4,14.38-2.29-9.48-11.54-13.35-19.85-10-8.57,3.44-11.9,12.62-7.21,20.87L128.23,104.6c-2-8.07-10.19-13.6-19.75-9.76A14.69,14.69,0,0,0,101.2,115.45Z"/><path id="Back" class="cls-15" d="M210.47,42.08l6,3.7-7.16,2.87c-3.58,1.44-5.09-4.05-2.11-5.25Z"/><path id="Front:_1" data-name="Front: 1" class="cls-15" d="M104,90c1.08.91-.76,4.13-3.56,7.43s-6.72,7-6.77,5.47a13.3,13.3,0,0,1,3.11-9.16C99.56,90.41,102.93,89.08,104,90Z"/><path id="Front:_2" data-name="Front: 2" class="cls-15" d="M92,108.19l2.78-1.11,1.73,4.31-2.78,1.11C92.82,112.87,91.08,108.56,92,108.19Z"/><circle id="Tyre-3" data-name="Tyre" class="cls-18" cx="208.08" cy="70.27" r="11.16" transform="translate(-11.2 82.56) rotate(-21.87)"/><circle id="Rim-3" data-name="Rim" class="cls-13" cx="208.08" cy="70.27" r="7.69" transform="translate(-11.2 82.56) rotate(-21.87)"/><circle id="Tyre-4" data-name="Tyre" class="cls-18" cx="113.91" cy="108.06" r="11.16" transform="translate(-32.05 50.2) rotate(-21.87)"/><circle id="Rim-4" data-name="Rim" class="cls-13" cx="113.91" cy="108.06" r="7.69" transform="translate(-32.05 50.2) rotate(-21.87)"/><path id="Front" class="cls-19" d="M130.3,74.82l65.79-26.4c2.24-.9-6.27-10.48-16.43-8C145.24,49,136.94,62.28,130.3,74.82Z"/><line class="cls-20" x1="171.62" y1="42.22" x2="177.73" y2="57.44"/><rect class="cls-21" x="130.09" y="71.13" width="9.89" height="4.46" transform="translate(287.68 91.14) rotate(158.13)"/><path class="cls-21" d="M222.4,66.81c.69-.16,3.89-3.84,4.57-8.12L220,61.47A15.54,15.54,0,0,1,222.4,66.81Z"/><path class="cls-21" d="M128.23,104.6l67.11-26.93a18.8,18.8,0,0,1-1-2.11,14.76,14.76,0,0,1-.93-3.33L125.88,99.44A18.43,18.43,0,0,1,128.23,104.6Z"/><path class="cls-21" d="M91.38,113.35c1.37,2.74,3.56,4.61,5.56,3.8l4.27-1.72a11.68,11.68,0,0,1-.95-2.08,16.21,16.21,0,0,1-.76-3.29Z"/></g></svg>