<svg xmlns="http://www.w3.org/2000/svg" viewBox="0 0 413.67 125.35"><defs><style>.cls-1{fill:#4d4d4d}.cls-2{fill:#ccc}.cls-3{fill:#5c4a54}.cls-4{fill:#00974a}.cls-5{fill:#5cab6b}.cls-20,.cls-6{fill:none}.cls-6{stroke:#1a1a1a;stroke-width:2.44px}.cls-14,.cls-18,.cls-20,.cls-6{stroke-miterlimit:10}.cls-7{fill:#7d2416}.cls-8{fill:#edd3b9}.cls-9{fill:#8c4121}.cls-10{fill:#d9c391}.cls-11{fill:#dead4b}.cls-12{fill:#c4c1c1}.cls-13{fill:#e1e3e4}.cls-14{fill:#1b1c1c;stroke:#1b1c1c;stroke-width:.79px}.cls-15{fill:#fff}.cls-16{fill:#c1c3c5}.cls-17{fill:#f59a2f}.cls-18{stroke:#000;stroke-width:.56px}.cls-19{fill:#edefef}.cls-20{stroke:#f59a2f;stroke-width:1.61px}.cls-21{fill:#ab6d1d}</style></defs><title>Contact Success</title><g id="Support"><path class="cls-1" d="M0 110.7h413.67v14.65H0z"/><path class="cls-2" d="M0 103.59h413.67v6.99H0z"/><g id="Freeway"><path class="cls-3" d="M34.1 26.14a2.63 2.63 0 0 1 2.63 2.63v74.83h-5.26V28.77a2.63 2.63 0 0 1 2.63-2.63zm43.09 0a2.63 2.63 0 0 1 2.63 2.63v74.83h-5.26V28.77a2.63 2.63 0 0 1 2.63-2.63z"/><rect class="cls-4" x="21.98" y="21.67" width="67.32" height="58.01" rx="4.05" ry="4.05"/><path class="cls-5" d="M31.84 55.03H79.6v4.34H31.84zm4.7 9h38.35v4.34H36.54z"/></g><path class="cls-6" d="M218.44 13.4v49.37"/><path class="cls-7" d="M215.34 13.4l60.61 65.81 17.27-16.8L229.12 0l-13.78 13.4z"/><path class="cls-8" d="M219.23 17.63l13.93-13.7L229.12 0l-13.79 13.41 3.9 4.22z"/><path class="cls-9" d="M305.53 102.4h69.56V33.81A29.85 29.85 0 0 0 345.24 4h-33.35a6.36 6.36 0 0 0-6.36 6.36z"/><path class="cls-9" d="M259.16 48.65h36.91v35.3a18.46 18.46 0 0 1-18.46 18.46 18.46 18.46 0 0 1-18.46-18.46v-35.3z" transform="rotate(-180 277.615 75.52)"/><rect class="cls-10" x="182.17" y="96.09" width="197.38" height="7.53" rx="3.69" ry="3.69" transform="rotate(-180 280.86 99.855)"/><path class="cls-7" transform="rotate(-180 280.86 88.715)" d="M186.63 81.34h188.46V96.1H186.63z"/><circle class="cls-11" cx="277.62" cy="62.43" r="7.63"/><path class="cls-12" d="M359.6 103.84h-.03"/><path class="cls-13" d="M313.35 103.59H358v-1.22a22.07 22.07 0 0 0-1.29-6.3 22.41 22.41 0 0 0-9.26-11.4 22.28 22.28 0 0 0-23.48 0 22.41 22.41 0 0 0-9.26 11.4 22.07 22.07 0 0 0-1.29 6.3c-.05.41-.07.81-.07 1.22z"/><circle id="Tyre" class="cls-14" cx="335.69" cy="103.67" r="16.23"/><circle id="Rim" class="cls-13" cx="335.69" cy="103.67" r="11.26"/><path class="cls-13" d="M207.19 103.59h44.66v-1.22a22.07 22.07 0 0 0-1.29-6.3 22.41 22.41 0 0 0-9.26-11.4 22.28 22.28 0 0 0-23.48 0 22.41 22.41 0 0 0-9.26 11.4 22.07 22.07 0 0 0-1.29 6.3c-.07.41-.08.81-.08 1.22z"/><circle id="Tyre-2" data-name="Tyre" class="cls-14" cx="229.52" cy="103.67" r="16.23"/><circle id="Rim-2" data-name="Rim" class="cls-13" cx="229.52" cy="103.67" r="11.26"/><path class="cls-15" d="M316.18 15.31h48.26v30.3h-24a24.26 24.26 0 0 1-24.26-24.26v-6.04z" transform="rotate(-180 340.31 30.46)"/><path class="cls-8" transform="rotate(-180 362.21 44.825)" d="M355 39.63h14.41v10.38H355z"/><path class="cls-15" transform="rotate(-180 370.86 81.335)" d="M368.73 75.29H373v12.1h-4.27z"/><path class="cls-15" transform="rotate(-180 191.04 88.715)" d="M188.9 84.39h4.27v8.64h-4.27z"/><path class="cls-16" d="M99.29 113.73a15.61 15.61 0 0 0 1 2.08l4.22-1.7a11.16 11.16 0 1 1 20.36-8.11l4.22-1.7a15.68 15.68 0 1 0-29.81 9.47zm94.17-37.8a15.61 15.61 0 0 0 1 2.08l4.22-1.7A11.16 11.16 0 1 1 219 68.16l3.4-1.36a2.33 2.33 0 0 0 .12-2.54 15.68 15.68 0 1 0-29.1 11.68z"/><path id="Fill" class="cls-17" d="M101.2 115.45l-4.26 1.71c-4.7 1.89-9.78-10.77-5.11-12.65-.93-5.16.45-12.6 9.24-16.4 1.87-.81 21.65-10.25 24.13-11.24 4.29-8.71 10.88-19.33 20.4-25.48 23.57-15.24 47-15.77 50.66-14.52 2-.66 3.72-1.48 4.37-1.77 1.37-.61 2.68 1.77 1.66 2.29-.28.15-1.61.88-2.39 1.19s5.13 2.24 5.64 2.28 3-1.29 4.15-1.3 13.87 5.9 16.67 12.88c2.9 7.24-3 14.15-4 14.38-2.29-9.48-11.54-13.35-19.85-10-8.57 3.44-11.9 12.62-7.21 20.87l-67.07 26.91c-2-8.07-10.19-13.6-19.75-9.76a14.69 14.69 0 0 0-7.28 20.61z"/><path id="Back" class="cls-15" d="M210.47 42.08l6 3.7-7.16 2.87c-3.58 1.44-5.09-4.05-2.11-5.25z"/><path id="Front:_1" data-name="Front: 1" class="cls-15" d="M104 90c1.08.91-.76 4.13-3.56 7.43s-6.72 7-6.77 5.47a13.3 13.3 0 0 1 3.11-9.16c2.78-3.33 6.15-4.66 7.22-3.74z"/><path id="Front:_2" data-name="Front: 2" class="cls-15" d="M92 108.19l2.78-1.11 1.73 4.31-2.78 1.11c-.91.37-2.65-3.94-1.73-4.31z"/><circle id="Tyre-3" data-name="Tyre" class="cls-18" cx="208.08" cy="70.27" r="11.16" transform="rotate(-21.87 208.061 70.265)"/><circle id="Rim-3" data-name="Rim" class="cls-13" cx="208.08" cy="70.27" r="7.69" transform="rotate(-21.87 208.061 70.265)"/><circle id="Tyre-4" data-name="Tyre" class="cls-18" cx="113.91" cy="108.06" r="11.16" transform="rotate(-21.87 113.89 108.044)"/><circle id="Rim-4" data-name="Rim" class="cls-13" cx="113.91" cy="108.06" r="7.69" transform="rotate(-21.87 113.89 108.044)"/><path id="Front" class="cls-19" d="M130.3 74.82l65.79-26.4c2.24-.9-6.27-10.48-16.43-8-34.42 8.58-42.72 21.86-49.36 34.4z"/><path class="cls-20" d="M171.62 42.22l6.11 15.22"/><path class="cls-21" transform="rotate(158.13 135.036 73.36)" d="M130.09 71.13h9.89v4.46h-9.89z"/><path class="cls-21" d="M222.4 66.81c.69-.16 3.89-3.84 4.57-8.12L220 61.47a15.54 15.54 0 0 1 2.4 5.34zm-94.17 37.79l67.11-26.93a18.8 18.8 0 0 1-1-2.11 14.76 14.76 0 0 1-.93-3.33l-67.53 27.21a18.43 18.43 0 0 1 2.35 5.16zm-36.85 8.75c1.37 2.74 3.56 4.61 5.56 3.8l4.27-1.72a11.68 11.68 0 0 1-.95-2.08 16.21 16.21 0 0 1-.76-3.29z"/></g></svg>