<svg xmlns="http://www.w3.org/2000/svg" viewBox="0 0 60 60"><defs><style>.a{fill:#a7a9ac}.b{fill:#fff}.c{fill:#f2f2f2}.d{fill:#d8d9d8}.e{fill:#7895c9}.f,.g{stroke:#fff}.f{stroke-miterlimit:10;fill:#24b574;stroke-width:1.46px}.g{fill:none;stroke-linecap:round;stroke-linejoin:round;stroke-width:1.77px}</style></defs><title>Email Verified</title><path class="a" d="M29.64 6.07L8.37 21.24h42.54L29.64 6.07z"/><path class="b" d="M50.91 21.24L29.64 36.4 8.36 21.24h42.55z"/><path class="c" d="M15.41 17.03h28.46v29.63H15.41z"/><path class="d" d="M19.14 22.56h21v.95h-21zm0 2.26h21v.95h-21zm0 2.26h21v.95h-21zm0 2.27h21v.95h-21zm0 2.26h21v.95h-21zm0 2.27h21v.95h-21z"/><path class="e" d="M50.91 21.24v26.38a2.19 2.19 0 0 1-2.2 2.19H10.56a2.2 2.2 0 0 1-2.2-2.19V21.24L29.64 36.4z"/><circle class="f" cx="47.81" cy="45.62" r="8.31"/><path class="g" d="M44.8 45.62l2.37 2.27 3.64-4.55"/></svg>