<svg xmlns="http://www.w3.org/2000/svg" viewBox="0 0 60 60"><defs><style>.a{fill:#a7a9ac;}.b{fill:#fff;}.c{fill:#f2f2f2;}.d{fill:#d8d9d8;}.e{fill:#7895c9;}.f{fill:#24b574;stroke-miterlimit:10;stroke-width:1.46px;}.f,.g{stroke:#fff;}.g{fill:none;stroke-linecap:round;stroke-linejoin:round;stroke-width:1.77px;}</style></defs><title>Icons</title><polygon class="a" points="29.64 6.07 8.37 21.24 50.91 21.24 29.64 6.07"/><polygon class="b" points="50.91 21.24 29.64 36.4 8.36 21.24 50.91 21.24"/><rect class="c" x="15.41" y="17.03" width="28.46" height="29.63"/><rect class="d" x="19.14" y="22.56" width="21" height="0.95"/><rect class="d" x="19.14" y="24.82" width="21" height="0.95"/><rect class="d" x="19.14" y="27.08" width="21" height="0.95"/><rect class="d" x="19.14" y="29.35" width="21" height="0.95"/><rect class="d" x="19.14" y="31.61" width="21" height="0.95"/><rect class="d" x="19.14" y="33.88" width="21" height="0.95"/><path class="e" d="M50.91,21.24V47.62a2.19,2.19,0,0,1-2.2,2.19H10.56a2.2,2.2,0,0,1-2.2-2.19V21.24L29.64,36.4Z"/><circle class="f" cx="47.81" cy="45.62" r="8.31"/><polyline class="g" points="44.8 45.62 47.17 47.89 50.81 43.34"/></svg>