<svg xmlns="http://www.w3.org/2000/svg" viewBox="0 0 141.73 141.73"><defs><style>.a{fill:#414042}.b{fill:#808285}.c{fill:#f1f2f2}.d{fill:#e6e7e8}.e{fill:#e26451}</style></defs><title>Icons</title><rect class="a" x="43.52" y="19.41" width="56.38" height="102.92" rx="5.66" ry="5.66"/><circle class="b" cx="71.8" cy="116.43" r="3.33"/><circle class="b" cx="66.68" cy="24.66" r=".69"/><rect class="b" x="68.57" y="24.22" width="8.87" height=".88" rx=".44" ry=".44"/><path class="c" d="M47.24 29.97h48.94v80.28H47.24z"/><path class="d" d="M51.65 39.64h39.62v4.05H51.65zM51.65 50.92h39.62v4.05H51.65zM51.65 62.2h39.62v4.05H51.65zM51.65 73.48h39.62v4.05H51.65zM51.65 84.75h39.62v4.05H51.65z"/><path class="e" d="M64 96h40.83v5.88H64a1.41 1.41 0 0 1-1.41-1.41v-3.03A1.41 1.41 0 0 1 64 96z"/><path class="e" d="M104.82 106.46v-15a.88.88 0 0 1 1.41-.69l9.67 7.49a.88.88 0 0 1 0 1.39l-9.67 7.49a.88.88 0 0 1-1.41-.68z"/></svg>