<svg xmlns="http://www.w3.org/2000/svg" viewBox="0 0 184.25 141.73"><defs><style>.a{fill:#28ac69}.b{fill:#228a4c}.c{fill:#d0d2d3}.d{fill:#229b5a}</style></defs><title>Icons</title><path class="a" d="M65.26 26.64h67.16v88.44H65.26z"/><path class="b" d="M55.74 26.64h9.52v88.45h-9.52z"/><ellipse class="c" cx="60.46" cy="42.27" rx="2.38" ry="2.34"/><ellipse class="c" cx="60.46" cy="42.27" rx="2.38" ry="2.34"/><rect class="a" x="51.84" y="40.54" width="9.38" height="3.46" rx="1.67" ry="1.67"/><ellipse class="c" cx="60.46" cy="61.34" rx="2.38" ry="2.34"/><ellipse class="c" cx="60.46" cy="61.34" rx="2.38" ry="2.34"/><rect class="a" x="51.84" y="59.61" width="9.38" height="3.46" rx="1.67" ry="1.67"/><ellipse class="c" cx="60.46" cy="80.4" rx="2.38" ry="2.34"/><ellipse class="c" cx="60.46" cy="80.4" rx="2.38" ry="2.34"/><rect class="a" x="51.84" y="78.67" width="9.38" height="3.46" rx="1.67" ry="1.67"/><ellipse class="c" cx="60.46" cy="99.46" rx="2.38" ry="2.34"/><ellipse class="c" cx="60.46" cy="99.46" rx="2.38" ry="2.34"/><rect class="a" x="51.84" y="97.73" width="9.38" height="3.46" rx="1.67" ry="1.67"/><path class="d" d="M65.26 63.06h67.16v52.02H65.26z"/><path class="b" d="M107.15 94.81h19.51v4.37h-19.51zm0 7.49h19.51v4.37h-19.51z"/></svg>