<svg xmlns="http://www.w3.org/2000/svg" viewBox="0 0 588.24 157"><title>Logo</title><path d="M74.73 60.25q5.2 5.54 5.2 15.46v27.8a4.9 4.9 0 0 1-1.36 3.55 5 5 0 0 1-8.57-3.55V75.7q0-5.93-3-9a10.52 10.52 0 0 0-7.92-3.06 10.85 10.85 0 0 0-8.31 3.5 12.61 12.61 0 0 0-3.26 8.94v27.42a4.9 4.9 0 0 1-1.36 3.55 5 5 0 0 1-8.56-3.55V75.7q0-5.93-3-9a10.52 10.52 0 0 0-7.92-3.06 11 11 0 0 0-8.41 3.5A12.6 12.6 0 0 0 15 76.08v27.42a4.9 4.9 0 0 1-1.36 3.55 4.77 4.77 0 0 1-3.6 1.41 4.82 4.82 0 0 1-5-5V60.25a4.77 4.77 0 0 1 1.41-3.6A4.9 4.9 0 0 1 10 55.29a4.84 4.84 0 0 1 3.5 1.31 4.91 4.91 0 0 1 1.46 3.45 17.84 17.84 0 0 1 6-3.94 20.12 20.12 0 0 1 7.58-1.41 19.43 19.43 0 0 1 8.9 2 17.08 17.08 0 0 1 6.46 5.69 20.29 20.29 0 0 1 7.29-5.64 22.7 22.7 0 0 1 9.72-2q8.62-.04 13.82 5.5zM140 59.47a6.11 6.11 0 0 1-.58 2.33l-29.75 66.89q-1.17 3-3.79 3a6.11 6.11 0 0 1-2.33-.58q-2.92-1.26-2.92-3.79a5.18 5.18 0 0 1 .58-2.33l9.72-21.87-21.86-41.51a4.12 4.12 0 0 1-.49-2 3.88 3.88 0 0 1 .78-2.33 5.12 5.12 0 0 1 2-1.65 4.75 4.75 0 0 1 1.94-.39 4.36 4.36 0 0 1 4.08 2.72l17.84 35.34L130.87 58q1.26-2.82 3.79-2.82a5.58 5.58 0 0 1 2.33.49q3.01 1.17 3.01 3.8zM153.86 106.08a14.87 14.87 0 0 1-5.2-6.42 22.5 22.5 0 0 1-1.85-9.28V37.3a4.86 4.86 0 1 1 9.72 0v53.08a11.63 11.63 0 0 0 1.36 5.93 4 4 0 0 0 3.5 2.33h2.43A4 4 0 0 1 167 100a5.06 5.06 0 0 1 1.22 3.5 4.17 4.17 0 0 1-1.85 3.5 7.82 7.82 0 0 1-4.76 1.36h-.19a13.07 13.07 0 0 1-7.56-2.28zM185.21 105.31a24.38 24.38 0 0 1-9.53-9.58 28.12 28.12 0 0 1-3.4-13.9 28.33 28.33 0 0 1 3.4-14 24.38 24.38 0 0 1 9.53-9.58 27.83 27.83 0 0 1 13.9-3.45 27.37 27.37 0 0 1 13.76 3.45 24.83 24.83 0 0 1 9.53 9.58 28 28 0 0 1 3.45 14 28.14 28.14 0 0 1-3.4 13.9 24.49 24.49 0 0 1-9.48 9.58 29.63 29.63 0 0 1-27.76 0zM208 97.68a16.13 16.13 0 0 0 6.13-6.46 19.74 19.74 0 0 0 2.19-9.38 20 20 0 0 0-2.19-9.43 16.06 16.06 0 0 0-6.13-6.52 18.12 18.12 0 0 0-17.79 0A16.39 16.39 0 0 0 184 72.4a19.67 19.67 0 0 0-2.24 9.43 19.38 19.38 0 0 0 2.24 9.38 16.46 16.46 0 0 0 6.17 6.46 18.12 18.12 0 0 0 17.79 0zM278.49 58.25a24.83 24.83 0 0 1 9.51 9.58 28 28 0 0 1 3.45 14v21a29.06 29.06 0 0 1-3.4 14 25.29 25.29 0 0 1-9.58 10 26.91 26.91 0 0 1-14 3.65 30.8 30.8 0 0 1-13-2.77 27.21 27.21 0 0 1-10.11-7.92 4.4 4.4 0 0 1-1.07-2.72 4.23 4.23 0 0 1 2-3.5 5 5 0 0 1 2.72-.87 4.8 4.8 0 0 1 4 2 17.09 17.09 0 0 0 6.61 5.2 21.75 21.75 0 0 0 9 1.8 16.78 16.78 0 0 0 8.65-2.28 16.45 16.45 0 0 0 6.22-6.71 22.33 22.33 0 0 0 2.33-10.55v-4.78a22.48 22.48 0 0 1-8 8.36 21.09 21.09 0 0 1-11.18 3 24.33 24.33 0 0 1-12.88-3.45 23.59 23.59 0 0 1-8.85-9.58 29.87 29.87 0 0 1-3.16-13.9 28.33 28.33 0 0 1 3.4-14 24.38 24.38 0 0 1 9.53-9.58 27.83 27.83 0 0 1 13.9-3.45 27.37 27.37 0 0 1 13.91 3.47zm-4.86 39.42a16.13 16.13 0 0 0 6.13-6.46 19.74 19.74 0 0 0 2.19-9.38 20 20 0 0 0-2.19-9.43 16.06 16.06 0 0 0-6.12-6.51 18.12 18.12 0 0 0-17.79 0 16.39 16.39 0 0 0-6.17 6.51 19.67 19.67 0 0 0-2.24 9.43 19.38 19.38 0 0 0 2.24 9.38 16.46 16.46 0 0 0 6.17 6.46 18.12 18.12 0 0 0 17.79 0zM347.61 58.3a24.57 24.57 0 0 1 8.94 9.7 29 29 0 0 1 3.26 13.76 27.4 27.4 0 0 1-3.5 13.76 25.56 25.56 0 0 1-9.67 9.72 26.91 26.91 0 0 1-13.64 3.52 26.22 26.22 0 0 1-23.19-13.27 27.09 27.09 0 0 1-3.55-13.76V37.4a4.77 4.77 0 0 1 1.41-3.6 4.94 4.94 0 0 1 8.51 3.6v26.25a24.48 24.48 0 0 1 31.45-5.35zm-5.83 39.32a17.07 17.07 0 0 0 6.22-6.56 19.14 19.14 0 0 0 2.28-9.33 18.87 18.87 0 0 0-2.28-9.28 17.19 17.19 0 0 0-6.22-6.51A17 17 0 0 0 318 72.45a19.18 19.18 0 0 0-2.24 9.28 19.45 19.45 0 0 0 2.24 9.33 17.14 17.14 0 0 0 23.77 6.56zM384.79 105.31a24.38 24.38 0 0 1-9.53-9.58 28.12 28.12 0 0 1-3.4-13.9 28.33 28.33 0 0 1 3.4-14 24.39 24.39 0 0 1 9.53-9.58 27.83 27.83 0 0 1 13.9-3.45 27.37 27.37 0 0 1 13.76 3.45 24.83 24.83 0 0 1 9.55 9.58 28 28 0 0 1 3.45 14 28.14 28.14 0 0 1-3.4 13.9 24.49 24.49 0 0 1-9.48 9.58 29.63 29.63 0 0 1-27.76 0zm22.8-7.63a16.12 16.12 0 0 0 6.12-6.46 19.73 19.73 0 0 0 2.19-9.38 20 20 0 0 0-2.19-9.43 16.06 16.06 0 0 0-6.12-6.51 18.13 18.13 0 0 0-17.79 0 16.39 16.39 0 0 0-6.17 6.51 19.66 19.66 0 0 0-2.24 9.43 19.37 19.37 0 0 0 2.24 9.38 16.46 16.46 0 0 0 6.17 6.46 18.13 18.13 0 0 0 17.79 0zM450.41 105.31a24.38 24.38 0 0 1-9.53-9.58 28.12 28.12 0 0 1-3.4-13.9 28.33 28.33 0 0 1 3.4-14 24.39 24.39 0 0 1 9.53-9.58 27.83 27.83 0 0 1 13.9-3.45 27.37 27.37 0 0 1 13.76 3.45 24.83 24.83 0 0 1 9.53 9.58 28 28 0 0 1 3.45 14 28.14 28.14 0 0 1-3.4 13.9 24.49 24.49 0 0 1-9.48 9.58 29.63 29.63 0 0 1-27.76 0zm22.8-7.63a16.12 16.12 0 0 0 6.12-6.46 19.73 19.73 0 0 0 2.19-9.38 20 20 0 0 0-2.19-9.43 16.06 16.06 0 0 0-6.12-6.51 18.13 18.13 0 0 0-17.79 0 16.39 16.39 0 0 0-6.17 6.51 19.66 19.66 0 0 0-2.25 9.42 19.37 19.37 0 0 0 2.24 9.38 16.46 16.46 0 0 0 6.17 6.46 18.13 18.13 0 0 0 17.79 0zM547 104.29a4.51 4.51 0 0 1-1.75 3.6 4.9 4.9 0 0 1-3.11 1.17 4.24 4.24 0 0 1-3.5-1.75l-18.43-22.86-4.86 4.28v14.87a4.77 4.77 0 1 1-9.53 0V37.21a4.77 4.77 0 1 1 9.53 0v39.56L539 55.68a4.12 4.12 0 0 1 3-1.26 4.06 4.06 0 0 1 3.3 1.58 4.12 4.12 0 0 1 1.26 3 4.06 4.06 0 0 1-1.56 3.29l-17.88 15.94L546 101.37a4.16 4.16 0 0 1 1 2.92z" fill="#404041" stroke="#404041" stroke-miterlimit="10" stroke-width="4.2"/><path d="M567.68 31.08a1.15 1.15 0 0 1-.82 2h-5.14v15.1a1.24 1.24 0 1 1-2.48 0V33.06h-5.16a1.15 1.15 0 1 1 0-2.29h12.78a1.12 1.12 0 0 1 .82.31zM589.07 31.12a1.2 1.2 0 0 1 .36.88v16.18a1.18 1.18 0 0 1-.37.88 1.25 1.25 0 0 1-1.76 0 1.2 1.2 0 0 1-.36-.88V36.3l-5.78 11.78a1.23 1.23 0 0 1-1.08.62 1.2 1.2 0 0 1-1.15-.74l-5.71-11.44v11.66a1.24 1.24 0 1 1-2.48 0V32a1.24 1.24 0 0 1 2.34-.57l7.09 14.21 6.9-14.21a1.25 1.25 0 0 1 2-.31z" fill="#404041" stroke="#404041" stroke-miterlimit="10" stroke-width="1.99"/></svg>