<svg xmlns="http://www.w3.org/2000/svg" viewBox="0 0 792 157"><defs><style>.a,.b{fill:#404041;stroke:#404041;stroke-miterlimit:10;}.a{stroke-width:4.2px;}.b{stroke-width:1.99px;}.c{fill:#1eb473;}.d{fill:#1d985c;}</style></defs><title>Logo</title><path class="a" d="M236.44,62.41q5.2,5.54,5.2,15.46v27.8a4.9,4.9,0,0,1-1.36,3.55,5,5,0,0,1-8.56-3.55V77.86q0-5.93-3-9a10.52,10.52,0,0,0-7.92-3.06,10.85,10.85,0,0,0-8.31,3.5,12.61,12.61,0,0,0-3.26,8.94v27.42a4.9,4.9,0,0,1-1.36,3.55,5,5,0,0,1-8.56-3.55V77.86q0-5.93-3-9a10.52,10.52,0,0,0-7.92-3.06,11,11,0,0,0-8.41,3.5,12.6,12.6,0,0,0-3.26,8.94v27.42a4.9,4.9,0,0,1-1.36,3.55,5,5,0,0,1-8.56-3.55V62.41a4.77,4.77,0,0,1,1.41-3.6,4.9,4.9,0,0,1,3.55-1.36,4.84,4.84,0,0,1,3.5,1.31,4.91,4.91,0,0,1,1.46,3.45,17.84,17.84,0,0,1,6-3.94,20.12,20.12,0,0,1,7.58-1.41,19.43,19.43,0,0,1,8.9,2,17.08,17.08,0,0,1,6.46,5.69,20.29,20.29,0,0,1,7.29-5.64,22.7,22.7,0,0,1,9.72-2Q231.24,56.86,236.44,62.41Z"/><path class="a" d="M301.72,61.63a6.11,6.11,0,0,1-.58,2.33l-29.75,66.89q-1.17,3-3.79,3a6.11,6.11,0,0,1-2.33-.58q-2.92-1.26-2.92-3.79a5.18,5.18,0,0,1,.58-2.33l9.72-21.87L250.78,63.77a4.12,4.12,0,0,1-.49-2,3.88,3.88,0,0,1,.78-2.33,5.12,5.12,0,0,1,2-1.65,4.75,4.75,0,0,1,1.94-.39,4.36,4.36,0,0,1,4.08,2.72l17.79,35.39,15.65-35.29q1.26-2.82,3.79-2.82a5.58,5.58,0,0,1,2.33.49Q301.72,59,301.72,61.63Z"/><path class="a" d="M315.57,108.24a14.87,14.87,0,0,1-5.2-6.42,22.5,22.5,0,0,1-1.85-9.28V39.46a4.86,4.86,0,1,1,9.72,0V92.54a11.63,11.63,0,0,0,1.36,5.93,4,4,0,0,0,3.5,2.33h2.43a4,4,0,0,1,3.16,1.36,5.06,5.06,0,0,1,1.22,3.5,4.17,4.17,0,0,1-1.85,3.5,7.82,7.82,0,0,1-4.76,1.36h-.19A13.07,13.07,0,0,1,315.57,108.24Z"/><path class="a" d="M346.93,107.47a24.38,24.38,0,0,1-9.53-9.58A28.12,28.12,0,0,1,334,84a28.33,28.33,0,0,1,3.4-14,24.38,24.38,0,0,1,9.53-9.58A27.83,27.83,0,0,1,360.83,57a27.37,27.37,0,0,1,13.76,3.45A24.83,24.83,0,0,1,384.11,70a28,28,0,0,1,3.45,14,28.14,28.14,0,0,1-3.4,13.9,24.49,24.49,0,0,1-9.48,9.58,29.63,29.63,0,0,1-27.76,0Zm22.8-7.63a16.13,16.13,0,0,0,6.13-6.46A19.74,19.74,0,0,0,378,84a20,20,0,0,0-2.19-9.43A16.06,16.06,0,0,0,369.72,68a18.12,18.12,0,0,0-17.79,0,16.39,16.39,0,0,0-6.17,6.51A19.67,19.67,0,0,0,343.52,84a19.38,19.38,0,0,0,2.24,9.38,16.46,16.46,0,0,0,6.17,6.46,18.12,18.12,0,0,0,17.79,0Z"/><path class="a" d="M440.2,60.41A24.84,24.84,0,0,1,449.73,70a28,28,0,0,1,3.45,14v21a29.06,29.06,0,0,1-3.4,14,25.3,25.3,0,0,1-9.58,10,26.91,26.91,0,0,1-14,3.65,30.81,30.81,0,0,1-13-2.77,27.21,27.21,0,0,1-10.11-7.92,4.4,4.4,0,0,1-1.07-2.72,4.23,4.23,0,0,1,2-3.5,5,5,0,0,1,2.72-.87,4.8,4.8,0,0,1,4,2,17.09,17.09,0,0,0,6.61,5.2,21.75,21.75,0,0,0,9,1.8,16.78,16.78,0,0,0,8.65-2.28,16.46,16.46,0,0,0,6.22-6.71,22.33,22.33,0,0,0,2.33-10.55V99.54a22.48,22.48,0,0,1-8,8.36,21.09,21.09,0,0,1-11.18,3,24.33,24.33,0,0,1-12.88-3.45,23.6,23.6,0,0,1-8.85-9.58A29.88,29.88,0,0,1,399.62,84,28.33,28.33,0,0,1,403,70a24.39,24.39,0,0,1,9.53-9.58A27.83,27.83,0,0,1,426.45,57,27.37,27.37,0,0,1,440.2,60.41Zm-4.86,39.42a16.12,16.12,0,0,0,6.13-6.46A19.74,19.74,0,0,0,443.66,84a20,20,0,0,0-2.19-9.43A16.06,16.06,0,0,0,435.34,68a18.12,18.12,0,0,0-17.79,0,16.39,16.39,0,0,0-6.17,6.51A19.67,19.67,0,0,0,409.14,84a19.39,19.39,0,0,0,2.24,9.38,16.46,16.46,0,0,0,6.17,6.46,18.12,18.12,0,0,0,17.79,0Z"/><path class="a" d="M509.32,60.46a24.57,24.57,0,0,1,8.94,9.67,29,29,0,0,1,3.26,13.76A27.4,27.4,0,0,1,518,97.65a25.56,25.56,0,0,1-9.67,9.72,26.91,26.91,0,0,1-13.66,3.55,26.22,26.22,0,0,1-23.19-13.27A27.09,27.09,0,0,1,468,83.89V39.56a4.77,4.77,0,0,1,1.41-3.6,4.94,4.94,0,0,1,8.51,3.6V65.81a24.48,24.48,0,0,1,31.45-5.35Zm-5.83,39.32a17.07,17.07,0,0,0,6.22-6.56A19.14,19.14,0,0,0,512,83.89a18.87,18.87,0,0,0-2.28-9.28,17.19,17.19,0,0,0-6.22-6.51,17,17,0,0,0-23.77,6.51,19.18,19.18,0,0,0-2.24,9.28,19.45,19.45,0,0,0,2.24,9.33,17.14,17.14,0,0,0,23.77,6.56Z"/><path class="a" d="M546.51,107.47A24.38,24.38,0,0,1,537,97.89a28.12,28.12,0,0,1-3.4-13.9A28.33,28.33,0,0,1,537,70a24.39,24.39,0,0,1,9.53-9.58A27.83,27.83,0,0,1,560.41,57a27.37,27.37,0,0,1,13.76,3.45A24.83,24.83,0,0,1,583.69,70a28,28,0,0,1,3.45,14,28.14,28.14,0,0,1-3.4,13.9,24.49,24.49,0,0,1-9.48,9.58,29.63,29.63,0,0,1-27.76,0Zm22.8-7.63a16.12,16.12,0,0,0,6.12-6.46A19.73,19.73,0,0,0,577.62,84a20,20,0,0,0-2.19-9.43A16.06,16.06,0,0,0,569.31,68a18.13,18.13,0,0,0-17.79,0,16.39,16.39,0,0,0-6.17,6.51A19.66,19.66,0,0,0,543.11,84a19.37,19.37,0,0,0,2.24,9.38,16.46,16.46,0,0,0,6.17,6.46,18.13,18.13,0,0,0,17.79,0Z"/><path class="a" d="M612.13,107.47a24.38,24.38,0,0,1-9.53-9.58A28.12,28.12,0,0,1,599.2,84a28.33,28.33,0,0,1,3.4-14,24.39,24.39,0,0,1,9.53-9.58A27.83,27.83,0,0,1,626,57a27.37,27.37,0,0,1,13.76,3.45A24.83,24.83,0,0,1,649.31,70a28,28,0,0,1,3.45,14,28.14,28.14,0,0,1-3.4,13.9,24.49,24.49,0,0,1-9.48,9.58,29.63,29.63,0,0,1-27.76,0Zm22.8-7.63A16.12,16.12,0,0,0,641,93.37,19.73,19.73,0,0,0,643.24,84,20,20,0,0,0,641,74.56,16.06,16.06,0,0,0,634.93,68a18.13,18.13,0,0,0-17.79,0A16.39,16.39,0,0,0,611,74.56,19.66,19.66,0,0,0,608.73,84,19.37,19.37,0,0,0,611,93.37a16.46,16.46,0,0,0,6.17,6.46,18.13,18.13,0,0,0,17.79,0Z"/><path class="a" d="M708.76,106.44A4.51,4.51,0,0,1,707,110a4.9,4.9,0,0,1-3.11,1.17,4.24,4.24,0,0,1-3.5-1.75L681.93,86.61l-4.86,4.28v14.87a4.77,4.77,0,1,1-9.53,0V39.37a4.77,4.77,0,1,1,9.53,0V78.93l23.62-21.1a4.12,4.12,0,0,1,3-1.26A4.06,4.06,0,0,1,707,58.13a4.12,4.12,0,0,1,1.26,3,4.06,4.06,0,0,1-1.56,3.31L688.83,80.39l18.86,23.14A4.16,4.16,0,0,1,708.76,106.44Z"/><path class="b" d="M729.4,33.24a1.15,1.15,0,0,1-.82,2h-5.14V50.34a1.24,1.24,0,1,1-2.48,0V35.21h-5.16a1.15,1.15,0,1,1,0-2.29h12.78A1.12,1.12,0,0,1,729.4,33.24Z"/><path class="b" d="M750.79,33.28a1.2,1.2,0,0,1,.36.88V50.34a1.18,1.18,0,0,1-.37.88,1.24,1.24,0,0,1-2.11-.88V38.46l-5.78,11.78a1.23,1.23,0,0,1-1.08.62,1.2,1.2,0,0,1-1.15-.74L735,38.68V50.34a1.24,1.24,0,1,1-2.48,0V34.16a1.24,1.24,0,0,1,2.34-.57L741.9,47.8l6.9-14.21a1.25,1.25,0,0,1,2-.31Z"/><polygon class="c" points="136.9 78.68 87.52 128.07 38.46 79.01 64.62 52.86 111.09 52.87 136.9 78.68"/><polygon class="d" points="111.09 52.87 87.85 76.12 64.6 52.87 111.09 52.87"/><path class="c" d="M98.14,24.09A14.57,14.57,0,1,0,98.42,45,14.77,14.77,0,0,0,98.14,24.09Zm-4.59,16a8.07,8.07,0,1,1,0-11.41A8.07,8.07,0,0,1,93.55,40.1Z"/></svg>