<svg xmlns="http://www.w3.org/2000/svg" viewBox="0 0 677.74 119.83"><title>Logo</title><path d="M198,42.77q5.2,5.54,5.2,15.46V86a4.9,4.9,0,0,1-1.36,3.55A5,5,0,0,1,193.26,86V58.23q0-5.93-3-9a10.52,10.52,0,0,0-7.92-3.06,10.85,10.85,0,0,0-8.31,3.5,12.61,12.61,0,0,0-3.26,8.94V86a4.9,4.9,0,0,1-1.36,3.55A5,5,0,0,1,160.89,86V58.23q0-5.93-3-9A10.52,10.52,0,0,0,150,46.17a11,11,0,0,0-8.41,3.5,12.6,12.6,0,0,0-3.26,8.94V86A4.9,4.9,0,0,1,137,89.58,5,5,0,0,1,128.42,86V42.77a4.77,4.77,0,0,1,1.41-3.6,4.9,4.9,0,0,1,3.55-1.36,4.84,4.84,0,0,1,3.5,1.31,4.91,4.91,0,0,1,1.46,3.45,17.84,17.84,0,0,1,6-3.94,20.12,20.12,0,0,1,7.58-1.41,19.43,19.43,0,0,1,8.9,2,17.08,17.08,0,0,1,6.46,5.69,20.29,20.29,0,0,1,7.29-5.64,22.7,22.7,0,0,1,9.72-2Q192.77,37.23,198,42.77Z" fill="#404041" stroke="#404041" stroke-miterlimit="10" stroke-width="4.2"/><path d="M263.25,42a6.11,6.11,0,0,1-.58,2.33l-29.75,66.89q-1.17,3-3.79,3a6.11,6.11,0,0,1-2.33-.58q-2.92-1.26-2.92-3.79a5.18,5.18,0,0,1,.58-2.33l9.72-21.87L212.31,44.13a4.12,4.12,0,0,1-.49-2,3.88,3.88,0,0,1,.78-2.33,5.12,5.12,0,0,1,2-1.65,4.75,4.75,0,0,1,1.94-.39,4.36,4.36,0,0,1,4.08,2.72l17.79,35.39,15.65-35.29q1.26-2.82,3.79-2.82a5.58,5.58,0,0,1,2.33.49Q263.25,39.37,263.25,42Z" fill="#404041" stroke="#404041" stroke-miterlimit="10" stroke-width="4.2"/><path d="M277.11,88.61a14.87,14.87,0,0,1-5.2-6.42,22.5,22.5,0,0,1-1.85-9.28V19.83a4.86,4.86,0,1,1,9.72,0V72.91a11.63,11.63,0,0,0,1.36,5.93,4,4,0,0,0,3.5,2.33h2.43a4,4,0,0,1,3.16,1.36,5.06,5.06,0,0,1,1.22,3.5,4.17,4.17,0,0,1-1.85,3.5,7.82,7.82,0,0,1-4.76,1.36h-.19A13.07,13.07,0,0,1,277.11,88.61Z" fill="#404041" stroke="#404041" stroke-miterlimit="10" stroke-width="4.2"/><path d="M308.46,87.83a24.38,24.38,0,0,1-9.53-9.58,28.12,28.12,0,0,1-3.4-13.9,28.33,28.33,0,0,1,3.4-14,24.38,24.38,0,0,1,9.53-9.58,27.83,27.83,0,0,1,13.9-3.45,27.37,27.37,0,0,1,13.76,3.45,24.83,24.83,0,0,1,9.53,9.58,28,28,0,0,1,3.45,14,28.14,28.14,0,0,1-3.4,13.9,24.49,24.49,0,0,1-9.48,9.58,29.63,29.63,0,0,1-27.76,0Zm22.8-7.63a16.13,16.13,0,0,0,6.13-6.46,19.74,19.74,0,0,0,2.19-9.38,20,20,0,0,0-2.19-9.43,16.06,16.06,0,0,0-6.12-6.51,18.12,18.12,0,0,0-17.79,0,16.39,16.39,0,0,0-6.17,6.51,19.67,19.67,0,0,0-2.24,9.43,19.38,19.38,0,0,0,2.24,9.38,16.46,16.46,0,0,0,6.17,6.46,18.12,18.12,0,0,0,17.79,0Z" fill="#404041" stroke="#404041" stroke-miterlimit="10" stroke-width="4.2"/><path d="M401.74,40.78a24.84,24.84,0,0,1,9.53,9.58,28,28,0,0,1,3.45,14v21a29.06,29.06,0,0,1-3.4,14,25.3,25.3,0,0,1-9.58,10,26.91,26.91,0,0,1-14,3.65,30.81,30.81,0,0,1-13-2.77,27.21,27.21,0,0,1-10.11-7.92,4.4,4.4,0,0,1-1.07-2.72,4.23,4.23,0,0,1,2-3.5,5,5,0,0,1,2.72-.87,4.8,4.8,0,0,1,4,2,17.09,17.09,0,0,0,6.61,5.2,21.75,21.75,0,0,0,9,1.8,16.78,16.78,0,0,0,8.65-2.28,16.46,16.46,0,0,0,6.22-6.71,22.33,22.33,0,0,0,2.33-10.55V79.91a22.48,22.48,0,0,1-8,8.36,21.09,21.09,0,0,1-11.18,3,24.33,24.33,0,0,1-12.88-3.45,23.6,23.6,0,0,1-8.85-9.58,29.88,29.88,0,0,1-3.16-13.9,28.33,28.33,0,0,1,3.4-14,24.39,24.39,0,0,1,9.53-9.58A27.83,27.83,0,0,1,388,37.33,27.37,27.37,0,0,1,401.74,40.78ZM396.87,80.2A16.12,16.12,0,0,0,403,73.73a19.74,19.74,0,0,0,2.19-9.38A20,20,0,0,0,403,54.92a16.06,16.06,0,0,0-6.12-6.51,18.12,18.12,0,0,0-17.79,0,16.39,16.39,0,0,0-6.17,6.51,19.67,19.67,0,0,0-2.24,9.43,19.39,19.39,0,0,0,2.24,9.38,16.46,16.46,0,0,0,6.17,6.46,18.12,18.12,0,0,0,17.79,0Z" fill="#404041" stroke="#404041" stroke-miterlimit="10" stroke-width="4.2"/><path d="M470.86,40.82a24.57,24.57,0,0,1,8.94,9.67,29,29,0,0,1,3.26,13.76A27.4,27.4,0,0,1,479.56,78a25.56,25.56,0,0,1-9.67,9.72,26.91,26.91,0,0,1-13.66,3.55A26.22,26.22,0,0,1,433,78a27.09,27.09,0,0,1-3.55-13.76V19.92a4.77,4.77,0,0,1,1.41-3.6,4.94,4.94,0,0,1,8.51,3.6V46.17a24.48,24.48,0,0,1,31.45-5.35ZM465,80.15a17.07,17.07,0,0,0,6.22-6.56,19.14,19.14,0,0,0,2.28-9.33A18.87,18.87,0,0,0,471.24,55,17.19,17.19,0,0,0,465,48.46,17,17,0,0,0,441.25,55,19.18,19.18,0,0,0,439,64.25a19.45,19.45,0,0,0,2.24,9.33A17.14,17.14,0,0,0,465,80.15Z" fill="#404041" stroke="#404041" stroke-miterlimit="10" stroke-width="4.2"/><path d="M508,87.83a24.38,24.38,0,0,1-9.53-9.58,28.12,28.12,0,0,1-3.4-13.9,28.33,28.33,0,0,1,3.4-14A24.39,24.39,0,0,1,508,40.78a27.83,27.83,0,0,1,13.9-3.45,27.37,27.37,0,0,1,13.76,3.45,24.83,24.83,0,0,1,9.53,9.58,28,28,0,0,1,3.45,14,28.14,28.14,0,0,1-3.4,13.9,24.49,24.49,0,0,1-9.48,9.58,29.63,29.63,0,0,1-27.76,0Zm22.8-7.63A16.12,16.12,0,0,0,537,73.73a19.73,19.73,0,0,0,2.19-9.38A20,20,0,0,0,537,54.92a16.06,16.06,0,0,0-6.12-6.51,18.13,18.13,0,0,0-17.79,0,16.39,16.39,0,0,0-6.17,6.51,19.66,19.66,0,0,0-2.24,9.43,19.37,19.37,0,0,0,2.24,9.38A16.46,16.46,0,0,0,513,80.2a18.13,18.13,0,0,0,17.79,0Z" fill="#404041" stroke="#404041" stroke-miterlimit="10" stroke-width="4.2"/><path d="M573.66,87.83a24.38,24.38,0,0,1-9.53-9.58,28.12,28.12,0,0,1-3.4-13.9,28.33,28.33,0,0,1,3.4-14,24.39,24.39,0,0,1,9.53-9.58,27.83,27.83,0,0,1,13.9-3.45,27.37,27.37,0,0,1,13.76,3.45,24.83,24.83,0,0,1,9.53,9.58,28,28,0,0,1,3.45,14,28.14,28.14,0,0,1-3.4,13.9,24.49,24.49,0,0,1-9.48,9.58,29.63,29.63,0,0,1-27.76,0Zm22.8-7.63a16.12,16.12,0,0,0,6.12-6.46,19.73,19.73,0,0,0,2.19-9.38,20,20,0,0,0-2.19-9.43,16.06,16.06,0,0,0-6.12-6.51,18.13,18.13,0,0,0-17.79,0,16.39,16.39,0,0,0-6.17,6.51,19.66,19.66,0,0,0-2.24,9.43,19.37,19.37,0,0,0,2.24,9.38,16.46,16.46,0,0,0,6.17,6.46,18.13,18.13,0,0,0,17.79,0Z" fill="#404041" stroke="#404041" stroke-miterlimit="10" stroke-width="4.2"/><path d="M670.29,86.81a4.51,4.51,0,0,1-1.75,3.6,4.9,4.9,0,0,1-3.11,1.17,4.24,4.24,0,0,1-3.5-1.75L643.46,67l-4.86,4.28V86.13a4.77,4.77,0,1,1-9.53,0V19.73a4.77,4.77,0,1,1,9.53,0V59.3l23.62-21.1a4.12,4.12,0,0,1,3-1.26,4.06,4.06,0,0,1,3.31,1.56,4.12,4.12,0,0,1,1.26,3,4.06,4.06,0,0,1-1.56,3.31L650.36,60.75l18.86,23.14A4.16,4.16,0,0,1,670.29,86.81Z" fill="#404041" stroke="#404041" stroke-miterlimit="10" stroke-width="4.2"/><polygon points="49.06 108.43 0 59.37 26.15 33.22 72.63 33.23 98.44 59.05 49.06 108.43" fill="#1ab373"/><polygon points="72.63 33.23 49.4 56.47 26.15 33.22 72.63 33.23" fill="#1a975c"/><path d="M59.68,4.45a14.77,14.77,0,0,0-20.86-.27A14.78,14.78,0,0,0,39.09,25,14.79,14.79,0,0,0,60,25.32,14.78,14.78,0,0,0,59.68,4.45Zm-4.59,16A8.07,8.07,0,1,1,55.09,9,8.07,8.07,0,0,1,55.09,20.46Z" fill="#1ab373"/></svg>