<svg xmlns="http://www.w3.org/2000/svg" viewBox="0 0 617 574.88"><title>States</title><path d="M495.13 527.57c-4.06-.09-27.72-12.65-30.53-9.64-1.42 1.51-.57 6.81 2.74 12.29s4.63 13.42 4.82 19.57 3.78 10.78 7.47 16.92 5.86 7.56 9.34 7.56 8.62-4.63 9.94-7 12.1-17.58 13.23-20.7 2-22.4 0-24-12.94 5.1-17.01 5zM612.52 320.47c1.59-9.66 2.68-19.17 3.23-27.62.47-7.09 6.42-26.75-27.61-61.17-5.55-5.62 1.4-20.23-12.72-18.09-5.71.85-9.85-22.9-17.44-30.49-1.68-1.68.64-7.51-.57-9.78-2.09-3.94-20.57-19.08-22.69-19.15s-5 2.62-7.09 1.57c-1.87-1-5.67-2.27-7.37-18.3s-2-22.54-8.08-29.91 1.7-16.74-1.13-26.66-8.42-13.61-11.77-14.61-8.6 2.84-11-2.55.06-15.6-2.08-19.57S470.36.75 468.79.6s-20.27 39.57-19.7 67.4-10.76 51.15-21.09 51.15c-7 0-19.51-6.47-32.55-14.89-22.3-14.42-46.11-34.58-46.32-38-.24-4.14 10.23-15.05 9.25-17.47s-3.12-4.81 1.55-7.23 15.61-9.36 13.91-16.73-22.88-7.09-25-5.24-2.68 5-10.9 1.27a178 178 0 0 0-18.86-7.37c-1.66-.37-31.47-7.37-32.75-5.54s16.61 7.53 11.91 14.18c-1.7 2.42-5.39 3.55-11.76 2.56s-13.61-2.13-16.6 1.13-26.37 31.61-23.11 35.44 9.08 7.94 5.52 10.64c-1.51 1.15-4.24.78-7.17-.12-4-1.23-8.29-3.46-10.41-4.28-3.69-1.41-5.25 2.13-7.09 1s-18.15-18.85-20.28-17.87S163.08 81.14 163.51 84s7.24 16.74 5.1 17.88S154.22 95 152.17 97s2.77 18.37 1 20.15-15-12.48-17.45-11.07-3.54 12.34-5.54 13 1.13 9.51 2.42 11.64-1 4.39-3.05 5.52-9.57 17.44-12.41 18.86-56.71 27.16-62 27.36c-12.61.5-36.44 22-38.85 24.82s-7.94.84-10.06 3.68-4.4 43.54 4.67 56.3 10.1 13.83 8.83 15.24S1.43 278.53.59 280s16.87 18.85 19.42 23 1.84 9.64 5.81 14.75 12.77 13.61 14 23.69 5.1 16.88 7.94 19.85 9.21 15.45 8.51 22.69-2 11.77-.14 16.88-7.94 8.36-8.09 10.91 6 9.93 11.34 10.78 26.24 1.57 29.64 3 7.08 3.27 11-1.13 14.47-18.85 16.31-19.56 24.67-2.84 29.36-4.83 17 3 22-.57 28.51-27.64 32.75-28.63 13.76.27 27.66-5.25c6.31-2.51 11.71-4.67 16.94-6.31a67.84 67.84 0 0 1 19.36-3.34c12.91-.28 17-3.12 22.55-.42s13.39 8.49 22.61 7.49 18.86 13.34 19.43 14.33 9.21 9.22 11.62 15.31 4.54 12.33 6 12.33 29.49-29.35 31-28.78-4.68 25.52-3.26 26.66 5.81.71 8.08 7.52 3.12 15.17 6.38 15.17 6-3.55 7.52-3 2.42 34.46 5.39 35.31 6.38-.85 10.64 5.67 7.79 11.2 11.62 10.49a72.49 72.49 0 0 1 9.45.23c13.44.79 36.35 2.81 38.91 2.61 5.39-.43 12 13.85 17.11 14.37 4.89.49 21.75-17.78 24.39-18.34s12.48-.19 17.21-1.89 13.61 3.4 15.12 0-.94-26.7 13-38S570.56 406 578.13 399s9-9.2 15.12-17.87c8.83-12.51 15.47-36.67 19.27-59.9z" fill="#e6e7e8" stroke="#e6e7e8" stroke-miterlimit="10"/><path d="M615.71 292.83c-.56 8.45-1.64 18-3.23 27.62-1.61 1.89-8-1-9.81-1s-6.81 1.51-8.33 3 .19 4.44-1 5.67-4-.67-5.39-.85-2.37 4.25-4.45 3.87-7.28-6.81-11.82-9.64-12.57-3.21-15-3.49-7.4 6.24-8.6 6.24S434 322 434 322l.24-61.21h-38.87V104.23c13 8.43 25.56 14.89 32.55 14.89 10.37 0 21.7-23.39 21.13-51.18S467.2.45 468.76.58s15.31 39.57 17.45 43.54-.28 14.18 2.08 19.57 7.63 1.55 11 2.55 8.94 4.67 11.77 14.61-5 19.28 1.13 26.66 6.38 13.88 8.08 29.91 5.5 17.32 7.37 18.3c2.05 1.05 4.92-1.63 7.09-1.57s20.6 15.21 22.69 19.15c1.2 2.27-1.11 8.1.57 9.78 7.59 7.59 11.73 31.34 17.44 30.49 14.11-2.13 7.17 12.48 12.72 18.09 33.98 34.43 28.03 54.08 27.56 61.17z" fill="#808285" stroke="#808285" stroke-miterlimit="10"/></svg>