<svg xmlns="http://www.w3.org/2000/svg" viewBox="0 0 60 60"><defs><style>.a,.e{fill:none;}.a{stroke:#a7a9ac;stroke-width:4.56px;}.a,.d{stroke-miterlimit:10;}.b{fill:#7895c9;}.c{fill:#f2f2f2;}.d{fill:#24b574;stroke-width:1.46px;}.d,.e{stroke:#fff;}.e{stroke-linecap:round;stroke-linejoin:round;stroke-width:1.77px;}.f{fill:#d8dedf;}</style></defs><title>Icons</title><path class="a" d="M25.86,4.58h8a7.66,7.66,0,0,1,7.66,7.66V44.15a0,0,0,0,1,0,0H18.2a0,0,0,0,1,0,0V12.23a7.66,7.66,0,0,1,7.66-7.66Z"/><rect class="b" x="11.44" y="23.56" width="36.8" height="30.14" rx="2.72" ry="2.72"/><path class="c" d="M30.89,39.81l2.48,5H26.31l2.48-5a3.74,3.74,0,1,1,2.11,0Z"/><circle class="d" cx="45.14" cy="49.59" r="8.31"/><polyline class="e" points="42.13 49.59 44.5 51.86 48.15 47.32"/><rect class="f" x="39.2" y="22.99" width="4.56" height="0.57"/><rect class="f" x="15.92" y="22.99" width="4.56" height="0.57"/></svg>