<svg xmlns="http://www.w3.org/2000/svg" viewBox="0 0 184.25 141.73"><defs><style>.a{isolation:isolate}.b{fill:#648494}.c,.d{fill:#7dafde}.d{opacity:.15;mix-blend-mode:multiply}.e,.f{fill:#e6e7e8}.e,.g{stroke:#648494}.e,.i{stroke-miterlimit:10}.e{stroke-width:2.05px}.g,.h,.i{fill:none}.g,.h{stroke-linecap:round;stroke-linejoin:round}.g{stroke-width:1.6px}.h{stroke:#2e404b;stroke-width:2.51px}.i{stroke:#c5362c;stroke-width:1.26px}.j{fill:#c5362c}.k{fill:#2e404b}.l{fill:#273844}</style></defs><title>Icons</title><g class="a"><path class="b" d="M88.64 29.26h8.56v10.18h-8.56z"/><rect class="c" x="83.35" y="22.54" width="19.14" height="10.5" rx="2.89" ry="2.89"/><path class="b" d="M102.45 24.34H83.39a2.18 2.18 0 0 1 2.15-1.8h14.76a2.18 2.18 0 0 1 2.15 1.8z"/><path class="d" d="M102.48 24.73v6.12A2.19 2.19 0 0 1 100.3 33h-7.38V22.54H100.87l.18.06.15.07h.05l.14.08a2.22 2.22 0 0 1 .29.2 2.14 2.14 0 0 1 .5.59 1.42 1.42 0 0 1 .09.17 1.32 1.32 0 0 1 .07.17c0 .07 0 .15.07.22a1.24 1.24 0 0 1 0 .15 1.89 1.89 0 0 1 .07.48z"/><path class="b" d="M119.26 50.12l-4.52-3.8 4.49-5.37 4.52 3.8-4.49 5.37z"/><path class="c" d="M123.37 47.82l-7.08-6a2 2 0 0 1-.24-2.78l2.1-2.51a2 2 0 0 1 2.78-.24l7.08 6a2 2 0 0 1 .24 2.78l-2.1 2.51a2 2 0 0 1-2.78.24z"/><path class="b" d="M128.69 44.49L118.64 36a1.49 1.49 0 0 1 1.93 0l7.79 6.56a1.51 1.51 0 0 1 .33 1.93z"/><path class="d" d="M128.54 44.71l-2.7 3.23a1.5 1.5 0 0 1-2.12.19l-3.9-3.28 4.64-5.54 3.89 3.27.11.1.1.11.06.08.07.11.05.1v.1a1.54 1.54 0 0 1 .07.23 1.48 1.48 0 0 1 0 .53 1 1 0 0 1 0 .13.91.91 0 0 1 0 .12l-.06.15v.09a1.3 1.3 0 0 1-.21.28z"/><path class="b" d="M64.99 50.12l4.52-3.8-4.49-5.37-4.52 3.8 4.49 5.37z"/><path class="c" d="M60.88 47.82l7.08-6a2 2 0 0 0 .24-2.78l-2.1-2.51a2 2 0 0 0-2.78-.24l-7.08 6a2 2 0 0 0-.24 2.78l2.1 2.51a2 2 0 0 0 2.78.24z"/><path class="b" d="M55.56 44.49L65.62 36a1.49 1.49 0 0 0-1.93 0l-7.79 6.58a1.51 1.51 0 0 0-.34 1.91z"/><path class="d" d="M55.71 44.71l2.7 3.23a1.5 1.5 0 0 0 2.12.19l3.9-3.28-4.64-5.55-3.89 3.28-.11.1-.1.11-.06.08-.07.11-.05.1v.1a1.54 1.54 0 0 0-.07.23 1.48 1.48 0 0 0 0 .53 1 1 0 0 0 0 .13.91.91 0 0 0 0 .12l.06.15v.09a1.3 1.3 0 0 0 .21.28z"/><path class="c" d="M92.13 119.2a41.05 41.05 0 1 1 40.93-41.05 41 41 0 0 1-40.93 41.05z"/><ellipse class="e" cx="92.13" cy="78.15" rx="32.22" ry="32.31"/><path class="f" d="M92.13 107.77a29.62 29.62 0 1 1 29.53-29.62 29.61 29.61 0 0 1-29.53 29.62z"/><path class="g" d="M72.64 58.6l1.82 1.83M72.64 97.69l1.82-1.83M111.61 97.69l-1.82-1.83M111.61 58.6l-1.82 1.83"/><path class="h" d="M92.13 63.14v15.01M102.87 78.15H92.13"/><path class="i" d="M82.53 87.49l14.39-13.83"/><path class="j" d="M100.22 71.85l-2.78 2.78-1.52-1.54 2.78-2.77 1.52 1.53z"/><ellipse class="k" cx="92.13" cy="78.15" rx="2.19" ry="2.2"/><ellipse class="l" cx="92.13" cy="51.91" rx="1.4" ry="1.41"/><ellipse class="l" cx="92.13" cy="104.5" rx="1.4" ry="1.41"/><ellipse class="l" cx="65.91" cy="78.2" rx="1.4" ry="1.41"/><ellipse class="l" cx="118.34" cy="78.2" rx="1.4" ry="1.41"/></g></svg>