<svg xmlns="http://www.w3.org/2000/svg" viewBox="0 0 141.73 141.73"><defs><style>.a{fill:#f0d0b4}.b,.c{stroke-linecap:round}.b{stroke-miterlimit:10;fill:none;stroke:#deb18a;stroke-width:1.48px}.c{fill:#fff;stroke:#eac19c;stroke-linejoin:round;stroke-width:2.46px}.d{fill:#4f2f15}.e{fill:#60391d}.f{fill:#eeefef}.g{fill:#4d9196}.h{fill:#231f20}</style></defs><title>Icons</title><ellipse class="a" cx="105.79" cy="79.37" rx="8.07" ry="9.99"/><ellipse class="a" cx="35.95" cy="79.37" rx="8.07" ry="9.99"/><path class="a" d="M70.87 117.26c-21.44 0-34.92-22.49-34.92-35.64V64.55c0-21.64 15.63-39.18 34.92-39.18s34.92 17.54 34.92 39.18v17.06c0 13.16-13.48 35.65-34.92 35.65z"/><path class="b" d="M67.32 89.39c1.39 0 1.84 1.32 3.55 1.32s2.15-1.32 3.55-1.32"/><path class="c" d="M63.15 99.88h15.43a7.6 7.6 0 0 1-7.6 7.6h-.23a7.6 7.6 0 0 1-7.6-7.6z"/><path class="d" d="M107.87 69.7c1.91-10.74.87-23.29-2.56-28.29-4.6-6.73-8-6.08-9.1-7.38-2.41-2.92-7.12-9.55-27.16-9.55s-39.48 17.88-35.64 45.4c0 0 3.64-1.85 5.84 7.55 1.84-15.64.22-22.3 11.89-30.58 0 0 16.81 9.27 33.47 3.06 8.23-3.07 18.13 4 16.66 27.52 2.73-8.06 6.6-7.73 6.6-7.73z"/><path class="e" d="M68.93 47.74c8.24 3.93 17-4 23-1.49a15.72 15.72 0 0 1 9.73 12.53S100.39 48 91.47 44.31c-5.97-2.47-12.01 1.5-22.54 3.43zM87.8 29.4c5 2.33 5.87 5.22 7.62 6.38s5.3 2.57 7 5.26c0 0-7-2.54-8.44-3.8s-2.88-2.9-6.18-7.84z"/><path class="d" d="M47.66 64.78c4.23-.57 17.15-.6 17.15-.6v-3.53s-11.31.35-13 1.1-6.03 3.25-4.15 3.03zm46.41 0c-4.23-.57-17.15-.6-17.15-.6v-3.53s11.31.35 13 1.1S96 65 94.07 64.78z"/><path class="f" d="M63.55 72.73c0 1.47-3.09 4.93-6.91 4.93s-6.91-3.45-6.91-4.93 3.09-4.93 6.91-4.93 6.91 3.46 6.91 4.93z"/><ellipse class="g" cx="56.64" cy="72.75" rx="3.77" ry="3.83"/><ellipse class="h" cx="56.64" cy="72.75" rx="2.2" ry="2.23"/><path class="f" d="M92 72.73c0 1.47-3.09 4.93-6.91 4.93s-6.91-3.45-6.91-4.93 3.09-4.93 6.91-4.93S92 71.26 92 72.73z"/><ellipse class="g" cx="85.09" cy="72.75" rx="3.77" ry="3.83"/><ellipse class="h" cx="85.09" cy="72.75" rx="2.2" ry="2.23"/></svg>