<svg xmlns="http://www.w3.org/2000/svg" viewBox="0 0 2192.79 243.44"><title>Grey Scenes</title><path d="M1949.36 74.12a10 10 0 0 1-19.71 2.54 10.17 10.17 0 0 1-7.65-7.56 10.36 10.36 0 0 1 2-20.43 10.08 10.08 0 0 1 9.7 7.78 10.16 10.16 0 0 1 7.66 7.56 10.25 10.25 0 0 1 8 10.11z" fill="#e6e6e5"/><path fill="#a7a9ac" d="M1863.83 222.87h328.97v3.73h-328.97z"/><path fill="#e6e6e5" d="M1886.82 226.52h-8.5v-32.88l4.25-4.37 4.25 4.37v32.88zm14.45 0h-8.49v-32.88l4.24-4.37 4.25 4.37v32.88zm14.45 0h-8.49v-32.88l4.24-4.37 4.25 4.37v32.88zm14.45 0h-8.49v-32.88l4.24-4.37 4.25 4.37v32.88zm-57.85 0h-8.49v-32.88l4.25-4.37 4.24 4.37v32.88z"/><path fill="none" d="M1867.28 188.34h5.51v39.24h-5.51z"/><path fill="#ccc" d="M1930.17 199.46v6.73h-66.34v-6.73zm0 13.02v6.73h-66.34v-6.73z"/><path fill="#e6e6e5" d="M2163.83 226.52h-8.49v-32.88l4.24-4.37 4.25 4.37v32.88zm14.49 0h-8.49v-32.88l4.25-4.37 4.24 4.37v32.88z"/><path fill="none" d="M2182.03 187.87h3.6v40.04h-3.6z"/><path fill="#e6e6e5" d="M2184.3 226.52h8.49v-32.87l-4.24-4.37-4.25 4.37v32.87z"/><path fill="none" d="M2189.34 227.59h-5.51v-39.24h5.51z"/><path fill="#ccc" d="M2192.8 199.45v6.73h-37.46v-6.73zm-.01 13.03v6.73h-37.46v-6.73z"/><path fill="#dbdddd" d="M2049.07 160.36h106.27v66.15h-106.27z"/><path fill="#cacbcc" d="M2060.06 169.81h84.08v56.7h-84.08z"/><path fill="none" stroke="#dbdddd" stroke-miterlimit="10" d="M2057.39 174.6h89.56m-89.56 9.43h89.56m-89.56 9.42h89.56m-89.56 9.42h89.56m-89.56 9.43h89.56m-89.56 9.42h89.56"/><path fill="#cacbcc" d="M2049.08 154.97h109.05v9.48h-109.05z"/><path fill="#fff" d="M2049.08 164.45h109.05v1.31h-109.05z"/><path fill="#dbdddd" d="M1941.5 101.58h13.97v28.39h-13.97z"/><path fill="#dbdddd" d="M2049.09 226.6h-118.92v-84.36l59.46-42.79 59.46 42.79v84.36z"/><path d="M1930.17 142.12l59.46-42.68 59.46 42.68h13.84l-70-52.75a5.49 5.49 0 0 0-6.61 0l-69.87 52.75z" fill="#cacbcc"/><path fill="#f2f2f2" d="M2004.77 166.62h27.58v27.58h-27.58z"/><path fill="#cacbcc" d="M1930.17 216.5h118.92v10.1h-118.92z"/><path fill="#fff" d="M1930.17 142.13l59.46-42.68 59.46 42.68v1.52l-59.4-42.2-59.52 42.06v-1.38z"/><path fill="#cacbcc" d="M2001.41 191.36h34.3v4.87h-34.3z"/><path fill="none" stroke="#fff" stroke-miterlimit="10" stroke-width="1.29" d="M1930.17 216.5h118.92"/><path fill="#f2f2f2" d="M1953.33 174.56h29.47v52h-29.47z"/><circle cx="1978.78" cy="200.17" r="1.44" fill="#cacbcc"/><path fill="#cacbcc" d="M1941.5 98.04h13.97v6.82h-13.97z"/><path fill="#bcbec0" d="M2048.37 182.78h1.44v43.3h-1.44z"/><path d="M2050.31 181.73h-2.45a3.45 3.45 0 0 1-3.39-2.82l-1.88-10.16h13l-1.88 10.16a3.45 3.45 0 0 1-3.4 2.82z" fill="#f1f2f2" stroke="#a7a9ac" stroke-miterlimit="10" stroke-width=".48"/><path fill="#a7a9ac" d="M2042.33 168.52l6.76-4.53 6.77 4.53h-13.53z"/><path fill="#a7a9ac" d="M2047.19 163.99h3.81v1.42h-3.81zm.52-.71h2.77v.71h-2.77zm4.98 17.82l-3.6 3.17-3.6-3.16a3.84 3.84 0 0 1-1-1.35h9.19a3.83 3.83 0 0 1-.99 1.34z"/><path fill="#a7a9ac" d="M2047.42 183.5h3.34v1.04h-3.34zm.03 33.28h3.29v9.3h-3.29zm.29-1.04h2.71v1.04h-2.71zm-3.14 10.34h8.98v.52h-8.98z"/><path fill="none" stroke="#a7a9ac" stroke-miterlimit="10" stroke-width=".48" d="M2045 179.76v-11m8.14 11v-11"/><circle cx="2049.09" cy="162.12" r="1.16" fill="#a7a9ac"/><circle cx="2049.09" cy="174.96" r="2.95" fill="#fff"/><rect x="1926.58" y="208.58" width="4.37" height="10.22" rx="2.18" ry="2.18" fill="#a7a9ac"/><rect x="1930.95" y="199.48" width="4.37" height="19.33" rx="2.18" ry="2.18" fill="#bcbec0"/><rect x="1935.31" y="204.4" width="4.37" height="14.41" rx="2.18" ry="2.18" fill="#d1d3d4"/><path d="M1925.2 215.27h15.85v5.13a6.11 6.11 0 0 1-6.11 6.11h-3.63a6.11 6.11 0 0 1-6.11-6.11v-5.13z" fill="#b4b4b4"/><rect x="1924.09" y="215.27" width="18.07" height="2.53" rx=".61" ry=".61" fill="#e6e7e8"/><path fill="none" stroke="#f1f2f2" stroke-miterlimit="10" stroke-width=".65" d="M1925.2 219.1h15.86m-15.86 1.06h15.86"/><g opacity=".5"><path d="M1534.93 173.56a33.86 33.86 0 1 1-67.72 0c0-18.7 15.16-73.35 33.86-73.35s33.86 54.65 33.86 73.35z" fill="#d8d9d8"/><path d="M1501.07 168.66a15.24 15.24 0 0 1-15.22-15.22c0-4.2 1.67-11.6 4-17.6 3.26-8.51 7-12.82 11.26-12.82s8 4.31 11.26 12.82c2.3 6 4 13.39 4 17.6a15.24 15.24 0 0 1-15.3 15.22z" fill="#fdfeff" opacity=".3"/><path fill="#a7a9ac" d="M1513.082 179.218l3.903 3.903-13.35 13.35-3.903-3.903zm-10.093-1.994l-3.904 3.903-13.35-13.35 3.904-3.903z"/><path fill="#a7a9ac" d="M1498.36 158.31h5.52v68.14h-5.52z"/></g><path d="M1458.61 192.47a6.84 6.84 0 0 1 6.84 6.84v27.19h-13.69v-27.18a6.84 6.84 0 0 1 6.84-6.84z" fill="#d8d9d8"/><path fill="#bbbdbf" d="M1450.93 200.73h15.36v2.73h-15.36zm0 24.22h15.36v1.57h-15.36zm382.72-58.74h4.31v66.19h-4.31z"/><path d="M1842.11 130.12v-9.54h12.33c0 3.83-7.26 9.54-12.33 9.54zm0 15.77v-9.54h12.33c0 3.84-7.26 9.54-12.33 9.54zm.04 15.81v-9.54h12.33c0 3.84-7.26 9.54-12.33 9.54zm-12.65-31.58v-9.54h-12.33c0 3.83 7.26 9.54 12.33 9.54zm0 15.77v-9.54h-12.33c0 3.84 7.26 9.54 12.33 9.54zm-.04 15.81v-9.54h-12.33c0 3.84 7.26 9.54 12.33 9.54z" fill="#cacbcc"/><circle cx="1835.77" cy="120.02" r="8.49" fill="#cacbcc"/><circle cx="1835.77" cy="164.03" r="8.49" fill="#cacbcc"/><rect x="1823.31" y="115.53" width="24.92" height="52.98" rx="4.96" ry="4.96" fill="#d8d9d8"/><circle cx="1835.77" cy="126.31" r="6.29" fill="#e5e5e5"/><circle cx="1835.77" cy="142.03" r="6.29" fill="#e5e5e5"/><circle cx="1835.77" cy="157.74" r="6.29" fill="#f2f2f2"/><path fill="#d8d9d8" d="M1518.99 130.24h100.35v89.61h-100.35z"/><path fill="#cacbcc" d="M1518.99 118.84h100.35v28.79h-100.35z"/><path fill="#d8d9d8" d="M1518.99 219.85h100.35v3.33h-100.35z"/><path fill="#fdfeff" d="M1532.76 118.84l-6.23 22.8h-17.06l9.52-22.8h13.77z"/><path fill="#d8d9d8" d="M1546.62 118.84l-3.03 22.8h-17.06l6.23-22.8h13.86z"/><path fill="#fdfeff" d="M1561.76 118.84l-1.11 22.8h-17.06l3.03-22.8h15.14z"/><path fill="#d8d9d8" d="M1577.71 141.64h-17.06l1.11-22.8h15.03l.92 22.8z"/><path fill="#fdfeff" d="M1594.77 141.64h-17.06l-.92-22.8h15.14l2.84 22.8z"/><path fill="#d8d9d8" d="M1611.83 141.64h-17.06l-2.84-22.8h13.76l6.14 22.8z"/><path fill="#fdfeff" d="M1628.88 141.64h-17.05l-6.14-22.8h13.66l9.53 22.8zm-102.36 0c-.18 3.33-3.93 6-8.52 6s-8.35-2.66-8.52-6z"/><path d="M1543.58 141.64c-.18 3.33-3.93 6-8.52 6s-8.35-2.66-8.52-6z" fill="#d8d9d8"/><path d="M1560.63 141.64c-.18 3.33-3.93 6-8.52 6s-8.35-2.66-8.52-6z" fill="#fdfeff"/><path d="M1577.7 141.64c-.18 3.33-3.93 6-8.52 6s-8.35-2.66-8.52-6z" fill="#d8d9d8"/><path d="M1594.75 141.64c-.18 3.33-3.93 6-8.52 6s-8.34-2.66-8.52-6z" fill="#fdfeff"/><path d="M1611.81 141.64c-.18 3.33-3.93 6-8.52 6s-8.35-2.66-8.52-6z" fill="#d8d9d8"/><path d="M1628.87 141.64c-.18 3.33-3.93 6-8.52 6s-8.34-2.66-8.52-6z" fill="#fdfeff"/><path fill="#cacbcc" d="M1518.99 115.51h100.35v3.33h-100.35zm-3.71 107.67h107.78v3.33h-107.78z"/><path fill="#d8d9d8" d="M1518.99 203.35h100.35v16.49h-100.35z"/><path fill="#fdfeff" d="M1524.8 165.01h28.87v54.17h-28.87z"/><circle cx="1548.32" cy="190.84" r="1.63" fill="#d8d9d8"/><path fill="none" stroke="#cacbcc" stroke-miterlimit="10" stroke-width="1.1" d="M1558.77 102.38v13.13m20.8-13.13v13.13"/><circle cx="1569.17" cy="95.07" r="14.36" fill="#cacbcc" stroke="#f3f3f3" stroke-miterlimit="10" stroke-width="1.78"/><path fill="#d8d9d8" d="M1576.73 95.77l-3.22 8.77h-8.55l-3.18-8.66-.04-.11h14.99z"/><path d="M1577.72 92.72a4.15 4.15 0 0 1-1 2.75h-15a3.69 3.69 0 0 1-1.12-2.75 3.61 3.61 0 0 1 3.31-3.84 2.88 2.88 0 0 1 1.16.24 4.76 4.76 0 0 1 8.26 0 2.88 2.88 0 0 1 1.06-.2 3.61 3.61 0 0 1 3.33 3.8zm-11.98 11.82h-.74l-1.45-7.63a.38.38 0 0 1 .3-.44h.07a.38.38 0 0 1 .37.31zm1.92 0h-.76l-.74-7.71a.38.38 0 0 1 .34-.41.37.37 0 0 1 .37.34zm1.95-7.77v7.77h-.75v-7.77a.38.38 0 1 1 .75 0zm5.34.14l-1.45 7.63h-.77l1.48-7.77a.38.38 0 0 1 .37-.31h.07a.38.38 0 0 1 .3.45zm-2.56-.07l-.91 7.7h-.76l.92-7.78a.38.38 0 0 1 .37-.33.38.38 0 0 1 .38.41z" fill="#f3f3f3"/><circle cx="1569.17" cy="86.71" r="1.1" fill="#e5e5e5"/><path fill="#f2f2f2" d="M1565.64 165.01h47.93v47.93h-47.93z"/><path fill="#dbdddd" d="M1633.56 84.32h170.98v135.59h-170.98z"/><path fill="#bbbdbf" d="M1633.56 219.91h170.98v3.3h-170.98z"/><path fill="#a7a9ac" d="M1627.23 223.21h183.63v3.3h-183.63z"/><path fill="#cacbcc" d="M1627.23 72.41h183.63v10.22h-183.63z"/><path fill="#bbbdbf" d="M1627.23 82.62h183.63v1.7h-183.63z"/><path fill="#cacbcc" d="M1647.55 62.86h145.65v9.44h-145.65z"/><path fill="#fdfeff" d="M1643.45 84.32h10.67v134.71h-10.67zm16.01 0h10.67v134.71h-10.67zm108.5 0h10.67v134.71h-10.67zm16.01 0h10.67v134.71h-10.67z"/><path fill="#cacbcc" d="M1633.56 203.56h170.98v16.35h-170.98z"/><path fill="none" stroke="#fff" stroke-miterlimit="10" stroke-width="2.32" d="M1633.56 203.56h170.98"/><path fill="#f2f2f2" d="M1681.67 92.22h17.8v46.17h-17.8zm28.49 0h17.8v46.17h-17.8zm28.49 0h17.8v46.17h-17.8z"/><path fill="#d8d9d8" d="M1681.66 155.83h74.78v64.08h-74.78z"/><path fill="#cacbcc" d="M1681.66 155.83h74.79v8.26h-74.79zm17.81 8.26h19.55v55.82h-19.55zm19.55 0h19.62v55.82h-19.62z"/><path fill="none" stroke="#fff" stroke-linecap="round" stroke-miterlimit="10" stroke-width=".88" d="M1722.13 186.2v10.71m-6.09-10.71v10.71"/><path fill="none" stroke="#fff" stroke-miterlimit="10" stroke-width="1.14" d="M1719.05 164.09v55.82"/><path fill="none" d="M1681.67 164.09h74.78v54.94h-74.78z"/><path d="M1374.23 147.46a2.68 2.68 0 0 1 2.68 2.68v76.37h-5.36v-76.37a2.68 2.68 0 0 1 2.68-2.68zm43.97 0a2.68 2.68 0 0 1 2.68 2.68v76.37h-5.36v-76.37a2.68 2.68 0 0 1 2.68-2.68z" fill="#d8d9d8"/><rect x="1361.86" y="142.89" width="68.71" height="59.21" rx="4.13" ry="4.13" fill="#cacbcc"/><path fill="#fdfeff" d="M1371.92 176.94h48.74v4.43h-48.74zm4.8 9.19h39.14v4.43h-39.14z"/><path fill="#cacbcc" d="M1182.82 118.67h4.44V226.5h-4.44z"/><path fill="#cacbcc" d="M1208.24 123.986l3.14 3.14-25.414 25.413-3.14-3.14zm-20.974 41.764l-3.14 3.14-25.413-25.414 3.14-3.14zm12.469 1.07l3.14 3.14-16.915 16.914-3.14-3.14zm-12.475 37.172l-3.14 3.14-20.026-20.025 3.14-3.14z"/><circle cx="1220.91" cy="112.35" r="11.74" fill="#d8d9d8"/><circle cx="1218.25" cy="128.97" r="11.74" fill="#e5e5e5"/><circle cx="1205.57" cy="117.23" r="11.74" fill="#cacbcc"/><circle cx="1151.97" cy="132.4" r="11.74" fill="#d8d9d8"/><circle cx="1154.63" cy="149.02" r="11.74" fill="#cacbcc"/><circle cx="1167.31" cy="137.28" r="11.74" fill="#e5e5e5"/><circle cx="1213.24" cy="154.63" r="11.74" fill="#d8d9d8"/><circle cx="1210.58" cy="171.26" r="11.74" fill="#e5e5e5"/><circle cx="1197.9" cy="159.51" r="11.74" fill="#cacbcc"/><circle cx="1167.31" cy="107.55" r="11.74" transform="rotate(-38.9 1167.294 107.563)" fill="#fdfeff"/><circle cx="1181.92" cy="99.18" r="11.74" transform="rotate(-38.9 1181.908 99.188)" fill="#cacbcc"/><circle cx="1180.75" cy="116.43" r="11.74" transform="rotate(-38.9 1180.724 116.43)" fill="#d8d9d8"/><circle cx="1156.04" cy="173.81" r="11.74" fill="#d8d9d8"/><circle cx="1158.7" cy="190.43" r="11.74" fill="#cacbcc"/><circle cx="1171.38" cy="178.69" r="11.74" fill="#e5e5e5"/><path fill="#cacbcc" d="M1260.75 146.19h3.31v80.31h-3.31z"/><path fill="#cacbcc" d="M1279.677 150.152l2.34 2.34-18.929 18.93-2.34-2.34zm-15.625 31.11l-2.34 2.34-18.93-18.929 2.34-2.34zm9.291.792l2.34 2.34-12.6 12.6-2.341-2.34zm-9.29 27.677l-2.34 2.34-14.914-14.912 2.34-2.34z"/><circle cx="1289.12" cy="141.48" r="8.75" fill="#d8d9d8"/><circle cx="1287.14" cy="153.86" r="8.75" fill="#e5e5e5"/><circle cx="1277.69" cy="145.12" r="8.75" fill="#cacbcc"/><circle cx="1237.77" cy="156.42" r="8.75" fill="#d8d9d8"/><circle cx="1239.75" cy="168.8" r="8.75" fill="#cacbcc"/><circle cx="1249.2" cy="160.05" r="8.75" fill="#e5e5e5"/><circle cx="1283.4" cy="172.98" r="8.75" fill="#d8d9d8"/><circle cx="1281.42" cy="185.36" r="8.75" fill="#e5e5e5"/><circle cx="1271.98" cy="176.61" r="8.75" fill="#cacbcc"/><circle cx="1249.2" cy="137.91" r="8.75" transform="rotate(-38.9 1249.177 137.912)" fill="#fdfeff"/><circle cx="1260.08" cy="131.68" r="8.75" transform="rotate(-38.9 1260.054 131.689)" fill="#cacbcc"/><circle cx="1259.2" cy="144.52" r="8.75" transform="rotate(-38.9 1259.18 144.534)" fill="#d8d9d8"/><circle cx="1240.8" cy="187.26" r="8.75" fill="#d8d9d8"/><circle cx="1242.78" cy="199.64" r="8.75" fill="#cacbcc"/><circle cx="1252.23" cy="190.89" r="8.75" fill="#e5e5e5"/><path fill="#cacbcc" d="M1323.3 169.11h2.36v57.39h-2.36z"/><path fill="#cacbcc" d="M1336.83 171.948l1.669 1.669-13.527 13.527-1.669-1.669zm-11.164 22.218l-1.668 1.669-13.527-13.527 1.669-1.669zm6.629.567l1.669 1.668-9.001 9.002-1.67-1.669zm-6.637 19.791l-1.669 1.669-10.656-10.656 1.669-1.67z"/><circle cx="1343.57" cy="165.75" r="6.25" fill="#d8d9d8"/><circle cx="1342.16" cy="174.59" r="6.25" fill="#e5e5e5"/><circle cx="1335.41" cy="168.34" r="6.25" fill="#cacbcc"/><circle cx="1306.88" cy="176.42" r="6.25" fill="#d8d9d8"/><circle cx="1308.3" cy="185.27" r="6.25" fill="#cacbcc"/><circle cx="1315.05" cy="179.02" r="6.25" fill="#e5e5e5"/><circle cx="1339.49" cy="188.25" r="6.25" fill="#d8d9d8"/><circle cx="1338.08" cy="197.1" r="6.25" fill="#e5e5e5"/><circle cx="1331.33" cy="190.85" r="6.25" fill="#cacbcc"/><circle cx="1315.05" cy="163.19" r="6.25" transform="rotate(-38.9 1315.027 163.204)" fill="#fdfeff"/><circle cx="1322.82" cy="158.74" r="6.25" transform="rotate(-38.9 1322.795 158.75)" fill="#cacbcc"/><circle cx="1322.2" cy="167.92" r="6.25" transform="rotate(-38.9 1322.167 167.923)" fill="#d8d9d8"/><circle cx="1309.05" cy="198.46" r="6.25" fill="#d8d9d8"/><circle cx="1310.46" cy="207.31" r="6.25" fill="#cacbcc"/><circle cx="1317.21" cy="201.06" r="6.25" fill="#e5e5e5"/><path fill="#e5e5e5" d="M1029.87 220.14h-77.41V33.86l77.41-32.13v218.41z"/><path fill="#cacbcc" d="M952.44 220.14h77.44v6.82h-77.44zM944.9 36.9l3.1 11.2 89.07-36.9-3.1-11.2-89.07 36.9z"/><path fill="#fdfeff" d="M967.54 125.73h14.43v14.43h-14.43zm32.82 0h14.43v14.43h-14.43zm-32.82-63.3h14.43v14.43h-14.43zm32.82 0h14.43v14.43h-14.43zm-32.82 34.54h14.43v14.43h-14.43zm32.82 0h14.43v14.43h-14.43zm-32.82 63.29h14.43v14.43h-14.43zm32.82 0h14.43v14.43h-14.43zm-32.82 34.54h14.43v14.43h-14.43zm32.82 0h14.43v14.43h-14.43z"/><path fill="#cacbcc" d="M869.16 217.94h-75.81V64.46h75.81z"/><path fill="#dbdddd" d="M806.14 65.38h9.7v153.48h-9.7z"/><path fill="#bbbdbf" d="M869.16 226.99h-75.81v-9.05h75.81z"/><path fill="#cacbcc" d="M793.35 39.58h75.8v25.35h-75.8z"/><path fill="#d8d9d8" d="M860.34 39.57h-58.18V29.41h58.18z"/><path fill="#dbdddd" d="M826.4 64.45h9.7v153.48h-9.7zm20.26 0h9.7v153.48h-9.7z"/><path fill="none" stroke="#fff" stroke-miterlimit="10" stroke-width=".9" d="M793.35 64.93h75.8"/><path fill="#c2c1c0" d="M889.19 226.99h-68.71v-6.43h68.71zm0-6.43h-68.71V111.63h68.71z"/><path fill="#c2c1c0" d="M889.19 89.08v22.98h-68.71V79.47l68.71 9.61z"/><path fill="none" stroke="#fff" stroke-miterlimit="10" stroke-width=".82" d="M820.48 112.06h68.71"/><path fill="#e5e5e5" d="M820.48 120.74h68.71v24.91h-68.71zm0 32.9h68.71v24.91h-68.71zm0 32.91h68.71v24.91h-68.71z"/><path fill="#cacbcc" d="M828.27 128.14h10.11v10.11h-10.11zm43.02 0h10.11v10.11h-10.11z"/><path fill="#fdfeff" d="M847.72 126.09h14.21v14.21h-14.21z"/><path fill="#cacbcc" d="M828.27 161.04h10.11v10.11h-10.11zm43.02 0h10.11v10.11h-10.11z"/><path fill="#fdfeff" d="M847.72 158.99h14.21v14.21h-14.21z"/><path fill="#cacbcc" d="M828.27 193.95h10.11v10.11h-10.11zm43.02 0h10.11v10.11h-10.11z"/><path fill="#fdfeff" d="M847.72 191.9h14.21v14.21h-14.21z"/><path fill="#d8d9d8" d="M1040.39 226.99h-68.71v-6.43h68.71zm0-6.43h-68.71V89.08h68.71z"/><path fill="#fdfeff" d="M1030.06 103.48h-48.04v-5.2h48.04zm0 15.4h-48.04v-5.2h48.04zm0 15.42h-48.04v-5.2h48.04zm0 15.42h-48.04v-5.2h48.04zm0 15.41h-48.04v-5.2h48.04zm0 15.42h-48.04v-5.2h48.04zm0 15.4h-48.04v-5.2h48.04zm0 15.42h-48.04v-5.2h48.04z"/><path d="M1040.4 89.08S1023 69.87 1006 69.87s-34.36 19.22-34.36 19.22z" fill="#cacbcc"/><path fill="none" stroke="#fff" stroke-miterlimit="10" stroke-width=".82" d="M971.69 89.48h68.71"/><path fill="none" d="M961.58 66.54h2.65"/><path fill="#d8d9d8" d="M932.18 36.68h-3.58V27.9h3.58z"/><path fill="#e5e5e5" d="M949.46 50.65h-37.84V36.54h37.84z"/><path fill="#cacbcc" d="M964.41 220.56h-67.74V66.09h67.74z"/><path fill="#fdfeff" d="M951.22 90.12h-12.63V77.49h12.63zm-28.72 0h-12.63V77.49h12.63zm28.72 30.22h-12.63v-12.63h12.63zm-28.72 0h-12.63v-12.63h12.63zm28.72 30.23h-12.63v-12.63h12.63zm-28.72 0h-12.63v-12.63h12.63zm28.72 30.21h-12.63v-12.63h12.63zm-28.72 0h-12.63v-12.63h12.63zm28.72 30.23h-12.63v-12.63h12.63zm-28.72 0h-12.63v-12.63h12.63z"/><circle cx="930.39" cy="23.49" r="4.42" fill="#cacbcc"/><path fill="#bbbdbf" d="M964.44 226.99h-67.77v-6.43h67.77zm75.96 0h-68.68v-6.43h68.68z"/><path fill="#d8d9d8" d="M956.6 66.09h-52.12V50.65h52.12z"/><path fill="none" stroke="#fff" stroke-miterlimit="10" stroke-width=".82" d="M896.65 66.48h67.76"/><path fill="#cacbcc" d="M1048.13 220.56h67.74V57.53l-67.74-28.11v191.14z"/><path fill="#bbbdbf" d="M1115.9 226.99h-67.77v-6.43h67.77z"/><path fill="#fdfeff" d="M1122.49 60.2l-2.71 9.8-77.95-32.29 2.71-9.8 77.95 32.29z"/><path fill="#e5e5e5" d="M1048.12 75.38h67.77v26.95h-67.77zm0 83.9h67.77v30.39h-67.77z"/><path fill="#fdfeff" d="M1102.67 150.57h-12.63v-12.63h12.63zm-28.71 0h-12.63v-12.63h12.63zm28.71-55.4h-12.63V82.54h12.63zm-28.71 0h-12.63V82.54h12.63zm28.71 30.23h-12.63v-12.63h12.63zm-28.71 0h-12.63v-12.63h12.63zm28.71 55.38h-12.63v-12.63h12.63zm-28.71 0h-12.63v-12.63h12.63zm28.71 30.23h-12.63v-12.63h12.63zm-28.71 0h-12.63v-12.63h12.63z"/><path fill="#a7a9ac" d="M804.69 135.28h2.91v91.71h-2.91z"/><circle cx="806.14" cy="135.28" r="9.5" fill="#fdfeff"/><path fill="#a7a9ac" d="M803.6 202.04h5.07v24.95h-5.07z"/><path d="M567.93 194.35s29.1-44.85 70-44.85 70 44.85 70 44.85zm-85.45-22.62c-14.24 6.56-27.06 15.85-40.78 28.16-8.56 7.67-17.47 16.52-27.3 26.61h-35.06c9.65-4.64 28.74-59.9 67.05-62.72 17.52-1.28 31.04 4.22 36.09 7.95z" fill="#bbbdbf"/><path fill="#a7a9ac" d="M433.18 189.67h4.28v15.55h-4.28z"/><path fill="#dbdddd" d="M419.67 197.53l15.65-26.81 15.66 26.81h-31.31z"/><path fill="#dbdddd" d="M422.87 186.88l12.45-21.34 12.46 21.34h-24.91z"/><path fill="#dbdddd" d="M444.58 176.21h-18.51l9.25-15.85 9.26 15.85z"/><path fill="#bbbdbf" d="M429.1 176.21h12.45l.31.53h-13.07l.31-.53zm-3.21 10.67h18.87l.3.52h-19.48l.31-.52z"/><path fill="#a7a9ac" d="M629.43 170.56h1.93v7.02h-1.93z"/><path fill="#dbdddd" d="M623.33 174.11L630.4 162l7.07 12.11h-14.14z"/><path fill="#dbdddd" d="M624.78 169.3l5.62-9.63 5.63 9.63h-11.25z"/><path fill="#dbdddd" d="M634.58 164.48h-8.36l4.18-7.16 4.18 7.16z"/><path fill="#bbbdbf" d="M627.59 164.48h5.62l.14.24h-5.9l.14-.24zm-1.45 4.82h8.52l.14.24H626l.14-.24z"/><path d="M575.05 226.51s45.37-64.32 109.15-64.32 109.15 64.32 109.15 64.32z" fill="#cacbcc"/><path d="M414.4 226.51c46-57.1 71.89-81.23 135.67-81.23s113.75 63.5 128.21 81.23z" fill="#d8d9d8"/><path d="M678.28 226.51c-92.28-46-145.1-9.9-164.79-42.78-9.73-16.26 1.86-36.87 39.82-38.39 62.2 2.36 110.71 63.7 124.95 81.15z" fill="#e5e5e5"/><path fill="#a7a9ac" d="M726.35 190.88h9.82v35.63h-9.82z"/><path fill="#dbdddd" d="M695.37 208.9l35.89-61.46 35.88 61.46h-71.77z"/><path fill="#dbdddd" d="M702.71 184.48l28.55-48.9 28.55 48.9h-57.1z"/><path fill="#dbdddd" d="M752.48 160.03h-42.44l21.22-36.34 21.22 36.34z"/><path fill="#bbbdbf" d="M716.98 160.03h28.55l.71 1.2h-29.96l.7-1.2zm-7.35 24.45h43.25l.71 1.2h-44.66l.7-1.2zm-677.49-17.9V226H19.25v-50.22a9.47 9.47 0 0 1 9.46-9.46h1.23a9.4 9.4 0 0 1 2.2.26z"/><path d="M52.29 151.24v26.56a8.77 8.77 0 0 0-7.29 8.64V226H32.14v-74.76a10.08 10.08 0 1 1 20.15 0z" fill="#d8d9d8"/><path d="M57.91 177.8V226H45v-39.56a8.77 8.77 0 0 1 7.27-8.64 8.28 8.28 0 0 1 1.5-.13h2.63a8.39 8.39 0 0 1 1.51.13z" fill="#bbbdbf"/><path d="M78.06 165.66V226H57.91v-60.34a10.08 10.08 0 1 1 20.15 0z" fill="#d8d9d8"/><g opacity=".85"><path fill="#cacbcc" d="M265.21 209.84h107.25v3.67H265.21z"/><path fill="#d8d9d8" d="M372.45 162.51v47.33H265.21v-47.33l53.62-30.74 53.62 30.74z"/><path fill="#cacbcc" d="M386.3 162.51l-8.64 2.98-5.21-2.98-53.62-30.74-53.62 30.74-5.21 2.98-8.64-2.98 67.47-38.67 67.47 38.67z"/><path fill="none" stroke="#fdfeff" stroke-miterlimit="10" stroke-width="2.25" d="M275.67 169.4h37.6v36.54h-37.6zm0 0l37.74 36.4m-37.74.14l37.74-36.41m10.91-.13h37.6v36.54h-37.6zm0 0l37.74 36.4m-37.74.14l37.74-36.41"/></g><circle cx="389.82" cy="199.44" r="6.01" fill="#d8d9d8"/><circle cx="389.82" cy="199.44" r="4.47" fill="#fdfeff"/><circle cx="389.82" cy="199.44" r="2.65" fill="#d8d9d8"/><circle cx="395.83" cy="209.79" r="6.01" fill="#d8d9d8"/><circle cx="395.83" cy="209.79" r="4.47" fill="#fdfeff"/><circle cx="395.83" cy="209.79" r="2.65" fill="#d8d9d8"/><circle cx="383.81" cy="209.79" r="6.01" fill="#d8d9d8"/><circle cx="383.81" cy="209.79" r="4.47" fill="#fdfeff"/><circle cx="383.81" cy="209.79" r="2.65" fill="#d8d9d8"/><path fill="#e5e5e5" d="M231.36 215.38H98.07v-58.83l66.64-38.2 66.64 38.2h.01"/><path fill="#fdfeff" d="M156.39 138.67h16.64v16.64h-16.64z"/><path fill="#d8d9d8" d="M98.07 215.38h133.29v4.56H98.07z"/><path fill="#cacbcc" d="M248.56 156.55l-10.73 3.71-6.47-3.71h-.01l-66.64-38.2-66.64 38.2-6.47 3.71-10.74-3.71 83.85-48.06 83.85 48.06z"/><path fill="#bbbdbf" d="M414 226.5H0v-14.13h414"/><path fill="#cacbcc" d="M414 193.44H0v-7.58h414m0 34.08H0v-7.57h414"/><path fill="#bbbdbf" d="M0 173.42h7.57v59.14H0zm78.06 0h7.57v59.14h-7.57zm81.16 0h7.57v59.14h-7.57zm84.53 0h7.57v59.14h-7.57zm79.45 0h7.57v59.14h-7.57zm90.8 59.14h-7.57v-59.14H414"/><path fill="#6d6e71" d="M0 226.51h2192.79v16.93H0z"/><path d="M503.57 228.3a1.65 1.65 0 0 1 0 .2h-2.54a9.63 9.63 0 0 0-19.26.29.88.88 0 0 0 0 .14h-2.24v-.58a1.93 1.93 0 0 1 0-.2 12 12 0 0 1 24 .2zm-78.06-.19v.78h-2.69a9.64 9.64 0 0 0-19.24-1l-2.44-.11a12.2 12.2 0 0 1 24.39.35z" fill="#c4c1c1"/><path d="M503.32 228.51h4.15c2.77 0 2.91-9.19 0-9.19 0 0 1.62-10.1-7.49-12.54-1.78-.47-21.43-2.55-23.63-3.16s-14.88-11.88-22.08-12.59c-4.11-.4-46.67-1.28-51.8 1.05-3.75 1.71-9.13 10.37-9.93 13.31a53.53 53.53 0 0 0-.47 11.75c-2.78.08-3.28 7.94.15 9.85 1.62.9 8.34.8 9.33.72.61-7.64 6.15-11.07 11.78-11.07 6.29 0 11.77 4.63 11.77 12.22h54.43c0-7.77 5.82-12.22 11.86-12.22 6.25.02 11.93 4.3 11.93 11.87z" fill="#e62a43"/><path d="M392.8 211.11v5.18h5c1.82 0 1.85-5.18 0-5.18zm102.2-1.54c-.64 1.21 1.68 2.58 4.39 4s5.9 3.22 5.88 1.89c0-3.17-2-5-4.13-6.14-2.69-1.45-5.49-.96-6.14.25z" fill="#fff"/><circle cx="413.16" cy="228.77" r="9.64" fill="#1b1c1c" stroke="#1b1c1c" stroke-miterlimit="10" stroke-width=".46"/><circle cx="413.16" cy="228.77" r="6.84" fill="#e1e3e4"/><circle cx="491.39" cy="228.77" r="9.64" fill="#1b1c1c" stroke="#1b1c1c" stroke-miterlimit="10" stroke-width=".46"/><circle cx="491.39" cy="228.77" r="6.84" fill="#e1e3e4"/><path d="M436.29 193v10.6h-38.71s3-7 5.63-9c2.1-1.57 14.9-1.57 14.9-1.57zm35.16 10.6H439.4V193s13.67 0 16.48.65c4.44 1.03 15.57 9.95 15.57 9.95z" fill="#eeefef"/><path fill="none" stroke="#e62a43" stroke-miterlimit="10" stroke-width="1.14" d="M415.78 192.15l-5.23 14.5"/><path fill="#a21d2c" d="M463.42 202h8.03v3.72h-8.03zm-61 21.79a14.38 14.38 0 0 0-.87 4c-1 .09-7.71.13-9.33-.77a4.94 4.94 0 0 1-2.14-3.22zm78.08 0a13.81 13.81 0 0 0-1 5.1h-54.39a14.16 14.16 0 0 0-.94-5.09zm29.1 0c0 2.34-.72 4.74-2.13 4.74h-4.15a12.74 12.74 0 0 0-.85-4.72z"/><path d="M507.62 221.81h-2.34v3.95h2.61c.59 0 .64-3.95-.27-3.95z" fill="#fff"/></svg>