<svg xmlns="http://www.w3.org/2000/svg" viewBox="0 0 1051.23 243.44"><title>Grey Scenes</title><path d="M994.89 147.46a2.68 2.68 0 0 1 2.68 2.68v76.37h-5.37v-76.37a2.68 2.68 0 0 1 2.69-2.68zm43.97 0a2.68 2.68 0 0 1 2.68 2.68v76.37h-5.36v-76.37a2.68 2.68 0 0 1 2.68-2.68z" fill="#d8d9d8"/><rect x="982.52" y="142.89" width="68.71" height="59.21" rx="4.13" ry="4.13" fill="#cacbcc"/><path fill="#fdfeff" d="M992.58 176.94h48.74v4.43h-48.74zm4.8 9.19h39.14v4.43h-39.14z"/><path fill="#cacbcc" d="M803.47 118.67h4.44V226.5h-4.44z"/><path fill="#cacbcc" d="M828.889 123.985l3.14 3.14-25.414 25.413-3.14-3.14zm-20.969 41.761l-3.14 3.14-25.413-25.413 3.14-3.14zm12.464 1.064l3.14 3.139-16.915 16.914-3.14-3.14zm-12.464 37.181l-3.14 3.14-20.025-20.025 3.14-3.14z"/><circle cx="841.57" cy="112.35" r="11.74" fill="#d8d9d8"/><circle cx="838.91" cy="128.97" r="11.74" fill="#e5e5e5"/><circle cx="826.23" cy="117.23" r="11.74" fill="#cacbcc"/><circle cx="772.62" cy="132.4" r="11.74" fill="#d8d9d8"/><circle cx="775.29" cy="149.02" r="11.74" fill="#cacbcc"/><circle cx="787.97" cy="137.28" r="11.74" fill="#e5e5e5"/><circle cx="833.9" cy="154.63" r="11.74" fill="#d8d9d8"/><circle cx="831.24" cy="171.26" r="11.74" fill="#e5e5e5"/><circle cx="818.56" cy="159.51" r="11.74" fill="#cacbcc"/><circle cx="787.97" cy="107.55" r="11.74" transform="rotate(-38.9 787.956 107.562)" fill="#fdfeff"/><circle cx="802.58" cy="99.18" r="11.74" transform="rotate(-38.9 802.556 99.182)" fill="#cacbcc"/><circle cx="801.4" cy="116.43" r="11.74" transform="rotate(-38.9 801.387 116.429)" fill="#d8d9d8"/><circle cx="776.7" cy="173.81" r="11.74" fill="#d8d9d8"/><circle cx="779.36" cy="190.43" r="11.74" fill="#cacbcc"/><circle cx="792.04" cy="178.69" r="11.74" fill="#e5e5e5"/><path fill="#cacbcc" d="M881.4 146.19h3.31v80.31h-3.31z"/><path fill="#cacbcc" d="M900.326 150.151l2.34 2.34-18.929 18.93-2.34-2.34zm-15.613 31.1l-2.34 2.34-18.93-18.929 2.34-2.34zm9.286.799l2.34 2.34-12.6 12.601-2.34-2.34zm-9.292 27.687l-2.34 2.34-14.914-14.912 2.34-2.34z"/><circle cx="909.77" cy="141.48" r="8.75" fill="#d8d9d8"/><circle cx="907.79" cy="153.86" r="8.75" fill="#e5e5e5"/><circle cx="898.35" cy="145.12" r="8.75" fill="#cacbcc"/><circle cx="858.43" cy="156.42" r="8.75" fill="#d8d9d8"/><circle cx="860.41" cy="168.8" r="8.75" fill="#cacbcc"/><circle cx="869.85" cy="160.05" r="8.75" fill="#e5e5e5"/><circle cx="904.06" cy="172.98" r="8.75" fill="#d8d9d8"/><circle cx="902.08" cy="185.36" r="8.75" fill="#e5e5e5"/><circle cx="892.63" cy="176.61" r="8.75" fill="#cacbcc"/><circle cx="869.85" cy="137.91" r="8.75" transform="rotate(-38.9 869.84 137.91)" fill="#fdfeff"/><circle cx="880.73" cy="131.68" r="8.75" transform="rotate(-38.9 880.716 131.688)" fill="#cacbcc"/><circle cx="879.86" cy="144.52" r="8.75" transform="rotate(-38.9 879.843 144.533)" fill="#d8d9d8"/><circle cx="861.46" cy="187.26" r="8.75" fill="#d8d9d8"/><circle cx="863.44" cy="199.64" r="8.75" fill="#cacbcc"/><circle cx="872.88" cy="190.89" r="8.75" fill="#e5e5e5"/><path fill="#cacbcc" d="M943.96 169.11h2.36v57.39h-2.36z"/><path fill="#cacbcc" d="M957.48 171.947l1.668 1.669-13.527 13.527-1.669-1.669zm-11.16 22.225l-1.668 1.669-13.527-13.527 1.668-1.669zm6.631.567l1.67 1.668-9.002 9.002-1.67-1.669zm-6.632 19.784l-1.669 1.669-10.656-10.656 1.669-1.67z"/><circle cx="964.23" cy="165.75" r="6.25" fill="#d8d9d8"/><circle cx="962.81" cy="174.59" r="6.25" fill="#e5e5e5"/><circle cx="956.06" cy="168.34" r="6.25" fill="#cacbcc"/><circle cx="927.54" cy="176.42" r="6.25" fill="#d8d9d8"/><circle cx="928.95" cy="185.27" r="6.25" fill="#cacbcc"/><circle cx="935.7" cy="179.02" r="6.25" fill="#e5e5e5"/><circle cx="960.15" cy="188.25" r="6.25" fill="#d8d9d8"/><circle cx="958.73" cy="197.1" r="6.25" fill="#e5e5e5"/><circle cx="951.98" cy="190.85" r="6.25" fill="#cacbcc"/><circle cx="935.7" cy="163.19" r="6.25" transform="rotate(-38.9 935.69 163.203)" fill="#fdfeff"/><circle cx="943.48" cy="158.74" r="6.25" transform="rotate(-38.9 943.457 158.748)" fill="#cacbcc"/><circle cx="942.85" cy="167.92" r="6.25" transform="rotate(-38.9 942.83 167.922)" fill="#d8d9d8"/><circle cx="929.7" cy="198.46" r="6.25" fill="#d8d9d8"/><circle cx="931.12" cy="207.31" r="6.25" fill="#cacbcc"/><circle cx="937.87" cy="201.06" r="6.25" fill="#e5e5e5"/><path fill="#e5e5e5" d="M650.53 220.14h-77.41V33.86l77.41-32.13v218.41z"/><path fill="#cacbcc" d="M573.09 220.14h77.44v6.82h-77.44zM565.56 36.9l3.09 11.2 89.07-36.9L654.63 0l-89.07 36.9z"/><path fill="#fdfeff" d="M588.2 125.73h14.43v14.43H588.2zm32.82 0h14.43v14.43h-14.43zm-32.82-63.3h14.43v14.43H588.2zm32.82 0h14.43v14.43h-14.43zM588.2 96.97h14.43v14.43H588.2zm32.82 0h14.43v14.43h-14.43zm-32.82 63.29h14.43v14.43H588.2zm32.82 0h14.43v14.43h-14.43zM588.2 194.8h14.43v14.43H588.2zm32.82 0h14.43v14.43h-14.43z"/><path fill="#cacbcc" d="M489.81 217.94H414V64.46h75.81z"/><path fill="#dbdddd" d="M426.8 65.38h9.7v153.48h-9.7z"/><path fill="#bbbdbf" d="M489.81 226.99H414v-9.05h75.81z"/><path fill="#cacbcc" d="M414 39.58h75.8v25.35H414z"/><path fill="#d8d9d8" d="M481 39.57h-58.18V29.41H481z"/><path fill="#dbdddd" d="M447.05 64.45h9.7v153.48h-9.7zm20.26 0h9.7v153.48h-9.7z"/><path fill="none" stroke="#fff" stroke-miterlimit="10" stroke-width=".9" d="M414 64.93h75.81"/><path fill="#cacbcc" d="M509.85 226.99h-68.71v-6.43h68.71z"/><path fill="#c2c1c0" d="M509.85 220.56h-68.71V111.63h68.71z"/><path fill="#c2c1c0" d="M509.84 89.08v22.98h-68.7V79.47l68.7 9.61z"/><path fill="none" stroke="#fff" stroke-miterlimit="10" stroke-width=".82" d="M441.14 112.06h68.7"/><path fill="#e5e5e5" d="M441.14 120.74h68.71v24.91h-68.71zm0 32.9h68.71v24.91h-68.71zm0 32.91h68.71v24.91h-68.71z"/><path fill="#cacbcc" d="M448.93 128.14h10.11v10.11h-10.11zm43.01 0h10.11v10.11h-10.11z"/><path fill="#fdfeff" d="M468.37 126.09h14.21v14.21h-14.21z"/><path fill="#cacbcc" d="M448.93 161.04h10.11v10.11h-10.11zm43.01 0h10.11v10.11h-10.11z"/><path fill="#fdfeff" d="M468.37 158.99h14.21v14.21h-14.21z"/><path fill="#cacbcc" d="M448.93 193.95h10.11v10.11h-10.11zm43.01 0h10.11v10.11h-10.11z"/><path fill="#fdfeff" d="M468.37 191.9h14.21v14.21h-14.21z"/><path fill="#d8d9d8" d="M661.06 226.99h-68.71v-6.43h68.71zm0-6.43h-68.71V89.08h68.71z"/><path fill="#fdfeff" d="M650.72 103.48h-48.04v-5.2h48.04zm0 15.4h-48.04v-5.2h48.04zm0 15.42h-48.04v-5.2h48.04zm0 15.42h-48.04v-5.2h48.04zm0 15.41h-48.04v-5.2h48.04zm0 15.42h-48.04v-5.2h48.04zm0 15.4h-48.04v-5.2h48.04zm0 15.42h-48.04v-5.2h48.04z"/><path d="M661.05 89.08s-17.39-19.21-34.35-19.21-34.36 19.22-34.36 19.22z" fill="#cacbcc"/><path fill="none" stroke="#fff" stroke-miterlimit="10" stroke-width=".82" d="M592.34 89.48h68.71"/><path fill="none" d="M582.24 66.54h2.64"/><path fill="#d8d9d8" d="M552.84 36.68h-3.58V27.9h3.58z"/><path fill="#e5e5e5" d="M570.12 50.65h-37.84V36.54h37.84z"/><path fill="#cacbcc" d="M585.06 220.56h-67.74V66.09h67.74z"/><path fill="#fdfeff" d="M571.88 90.12h-12.63V77.49h12.63zm-28.73 0h-12.63V77.49h12.63zm28.73 30.22h-12.63v-12.63h12.63zm-28.73 0h-12.63v-12.63h12.63zm28.73 30.23h-12.63v-12.63h12.63zm-28.73 0h-12.63v-12.63h12.63zm28.73 30.21h-12.63v-12.63h12.63zm-28.73 0h-12.63v-12.63h12.63zm28.73 30.23h-12.63v-12.63h12.63zm-28.73 0h-12.63v-12.63h12.63z"/><circle cx="551.04" cy="23.49" r="4.42" fill="#cacbcc"/><path fill="#bbbdbf" d="M585.09 226.99h-67.77v-6.43h67.77zm75.96 0h-68.68v-6.43h68.68z"/><path fill="#d8d9d8" d="M577.26 66.09h-52.12V50.65h52.12z"/><path fill="none" stroke="#fff" stroke-miterlimit="10" stroke-width=".82" d="M517.3 66.48h67.77"/><path fill="#cacbcc" d="M668.78 220.56h67.75V57.53l-67.75-28.11v191.14z"/><path fill="#bbbdbf" d="M736.55 226.99h-67.77v-6.43h67.77z"/><path fill="#fdfeff" d="M743.14 60.2l-2.7 9.8-77.95-32.29 2.71-9.8 77.94 32.29z"/><path fill="#e5e5e5" d="M668.77 75.38h67.77v26.95h-67.77zm0 83.9h67.77v30.39h-67.77z"/><path fill="#fdfeff" d="M723.34 150.57h-12.63v-12.63h12.63zm-28.73 0h-12.63v-12.63h12.63zm28.73-55.4h-12.63V82.54h12.63zm-28.73 0h-12.63V82.54h12.63zm28.73 30.23h-12.63v-12.63h12.63zm-28.73 0h-12.63v-12.63h12.63zm28.73 55.38h-12.63v-12.63h12.63zm-28.73 0h-12.63v-12.63h12.63zm28.73 30.23h-12.63v-12.63h12.63zm-28.73 0h-12.63v-12.63h12.63z"/><path fill="#a7a9ac" d="M425.34 135.28h2.91v91.71h-2.91z"/><circle cx="426.8" cy="135.28" r="9.5" fill="#fdfeff"/><path fill="#a7a9ac" d="M424.26 202.04h5.07v24.95h-5.07z"/><path d="M188.59 194.35s29.1-44.85 70-44.85 70 44.85 70 44.85zm-85.45-22.62c-14.24 6.56-27.06 15.85-40.78 28.16-8.56 7.67-17.47 16.52-27.3 26.61H0c9.65-4.64 28.74-59.9 67.05-62.72 17.52-1.28 31.03 4.22 36.09 7.95z" fill="#bbbdbf"/><path fill="#a7a9ac" d="M53.84 189.67h4.28v15.55h-4.28z"/><path fill="#dbdddd" d="M40.32 197.53l15.66-26.81 15.66 26.81H40.32z"/><path fill="#dbdddd" d="M43.52 186.88l12.46-21.34 12.46 21.34H43.52z"/><path fill="#dbdddd" d="M65.24 176.21H46.72l9.26-15.85 9.26 15.85z"/><path fill="#bbbdbf" d="M49.75 176.21h12.46l.31.53H49.45l.3-.53zm-3.2 10.67h18.87l.3.52H46.24l.31-.52z"/><path fill="#a7a9ac" d="M250.09 170.56h1.93v7.02h-1.93z"/><path fill="#dbdddd" d="M243.99 174.11l7.07-12.11 7.07 12.11h-14.14z"/><path fill="#dbdddd" d="M245.43 169.3l5.63-9.63 5.62 9.63h-11.25z"/><path fill="#dbdddd" d="M255.24 164.48h-8.36l4.18-7.16 4.18 7.16z"/><path fill="#bbbdbf" d="M248.25 164.48h5.62l.14.24h-5.9l.14-.24zm-1.45 4.82h8.52l.14.24h-8.8l.14-.24z"/><path d="M195.71 226.51s45.37-64.32 109.15-64.32S414 226.51 414 226.51z" fill="#cacbcc"/><path d="M35.05 226.51c46-57.1 71.89-81.23 135.67-81.23s113.75 63.5 128.21 81.23z" fill="#d8d9d8"/><path d="M298.94 226.51c-92.28-46-145.1-9.9-164.79-42.78-9.73-16.26 1.86-36.87 39.82-38.39 62.2 2.36 110.71 63.7 124.95 81.15z" fill="#e5e5e5"/><path fill="#a7a9ac" d="M347.01 190.88h9.82v35.63h-9.82z"/><path fill="#dbdddd" d="M316.03 208.9l35.89-61.46 35.88 61.46h-71.77z"/><path fill="#dbdddd" d="M323.36 184.48l28.56-48.9 28.55 48.9h-57.11z"/><path fill="#dbdddd" d="M373.13 160.03h-42.44l21.23-36.34 21.21 36.34z"/><path fill="#bbbdbf" d="M337.64 160.03h28.55l.7 1.2h-29.95l.7-1.2zm-7.35 24.45h43.25l.7 1.2h-44.65l.7-1.2z"/><path fill="#6d6e71" d="M0 226.51h1051.23v16.93H0z"/><path d="M500.91 228.37a1.65 1.65 0 0 1 0 .2h-2.54a9.63 9.63 0 0 0-19.26.29.88.88 0 0 0 0 .14h-2.24v-.58a1.93 1.93 0 0 1 0-.2 12 12 0 0 1 24 .2zm-78.05-.19v.78h-2.69a9.64 9.64 0 0 0-19.24-1l-2.44-.11a12.2 12.2 0 0 1 24.39.35z" fill="#c4c1c1"/><path d="M500.66 228.58h4.15c2.77 0 2.91-9.19 0-9.19 0 0 1.62-10.1-7.49-12.54-1.78-.47-21.43-2.55-23.63-3.16s-14.88-11.88-22.08-12.59c-4.11-.4-46.67-1.28-51.8 1.05-3.75 1.71-9.13 10.37-9.93 13.31a53.53 53.53 0 0 0-.47 11.75c-2.78.08-3.28 7.94.15 9.85 1.62.9 8.34.8 9.33.72.61-7.64 6.15-11.07 11.78-11.07 6.29 0 11.77 4.63 11.77 12.22h54.43c0-7.77 5.82-12.22 11.86-12.22 6.27.02 11.93 4.29 11.93 11.87z" fill="#e62a43"/><path d="M390.15 211.18v5.18h5c1.82 0 1.85-5.18 0-5.18zm102.2-1.55c-.64 1.21 1.68 2.58 4.39 4s5.9 3.22 5.88 1.89c0-3.17-2-5-4.13-6.14-2.69-1.44-5.49-.95-6.14.25z" fill="#fff"/><circle cx="410.51" cy="228.83" r="9.64" fill="#1b1c1c" stroke="#1b1c1c" stroke-miterlimit="10" stroke-width=".46"/><circle cx="410.51" cy="228.83" r="6.84" fill="#e1e3e4"/><circle cx="488.73" cy="228.83" r="9.64" fill="#1b1c1c" stroke="#1b1c1c" stroke-miterlimit="10" stroke-width=".46"/><circle cx="488.73" cy="228.83" r="6.84" fill="#e1e3e4"/><path d="M433.64 193.08v10.59h-38.71s3-7 5.63-9c2.1-1.57 14.9-1.57 14.9-1.57zm35.16 10.58h-32.06v-10.58s13.67 0 16.48.65c4.44 1.01 15.58 9.93 15.58 9.93z" fill="#eeefef"/><path fill="none" stroke="#e62a43" stroke-miterlimit="10" stroke-width="1.14" d="M413.12 192.22l-5.23 14.5"/><path fill="#a21d2c" d="M460.77 202.06h8.03v3.72h-8.03zm-61 21.79a14.38 14.38 0 0 0-.87 4c-1 .09-7.71.13-9.33-.77a4.94 4.94 0 0 1-2.14-3.22zm78.07 0a13.81 13.81 0 0 0-1 5.1h-54.39a14.16 14.16 0 0 0-.94-5.09zm29.1 0c0 2.34-.72 4.74-2.13 4.74h-4.15a12.74 12.74 0 0 0-.85-4.72z"/><path d="M505 221.88h-2.34v3.95h2.61c.55 0 .61-3.95-.27-3.95z" fill="#fff"/></svg>